<svg width="160" height="137" viewBox="0 0 160 137" fill="none" xmlns="http://www.w3.org/2000/svg">
<path d="M160 81.307C160 126.212 118.587 114.991 74.5315 114.991C30.4755 114.991 0.458984 126.212 0.458984 81.307C0.458984 36.4024 36.1734 0 80.2294 0C124.285 0 160 36.4024 160 81.307Z" fill="#EAE4FF"/>
<g opacity="0.7">
<path d="M63.8283 23.3091H47.8262V131.999H63.8283V23.3091Z" fill="#D2D3FF"/>
<path d="M98.1044 23.3091H63.834V131.999H98.1044V23.3091Z" fill="url(#paint0_linear_504_33236)"/>
<path d="M93.7665 30.2585H67.2207V33.4381H93.7665V30.2585Z" fill="url(#paint1_linear_504_33236)"/>
<path d="M93.7665 40.1951H67.2207V43.3746H93.7665V40.1951Z" fill="url(#paint2_linear_504_33236)"/>
<path d="M93.7665 49.6663H67.2207V52.8458H93.7665V49.6663Z" fill="url(#paint3_linear_504_33236)"/>
<path d="M93.7665 60.0796H67.2207V63.2591H93.7665V60.0796Z" fill="url(#paint4_linear_504_33236)"/>
<path d="M93.7665 69.4226H67.2207V72.6021H93.7665V69.4226Z" fill="url(#paint5_linear_504_33236)"/>
<path d="M57.9965 29.2241H53.7266V100.072H57.9965V29.2241Z" fill="url(#paint6_linear_504_33236)"/>
<path d="M57.9974 39.9019H54.0176V40.6164H57.9974V39.9019Z" fill="#E9EAFF"/>
<path d="M57.9974 54.2148H54.0176V54.9293H57.9974V54.2148Z" fill="#E9EAFF"/>
<path d="M57.9974 68.5298H54.0176V69.2443H57.9974V68.5298Z" fill="#E9EAFF"/>
<path d="M57.9974 82.8433H54.0176V83.5578H57.9974V82.8433Z" fill="#E9EAFF"/>
<path d="M54.5424 29.2241H53.4922V100.072H54.5424V29.2241Z" fill="#9792FF"/>
<path d="M47.8334 33.8169H25.2812V131.993H47.8334V33.8169Z" fill="url(#paint7_linear_504_33236)"/>
<path d="M29.2541 33.8169H25.2812V41.7809H29.2541V33.8169Z" fill="url(#paint8_linear_504_33236)"/>
<path d="M29.2541 41.7803H25.2812V53.6156H29.2541V41.7803Z" fill="#D2D3FF"/>
<path d="M29.2541 53.6229H25.2812V69.8581H29.2541V53.6229Z" fill="#D2D3FF"/>
<path d="M29.2541 69.851H25.2812V91.186H29.2541V69.851Z" fill="url(#paint9_linear_504_33236)"/>
<path d="M29.2541 91.1854H25.2812V100.071H29.2541V91.1854Z" fill="url(#paint10_linear_504_33236)"/>
<path d="M33.3368 33.8169H32.7012V100.072H33.3368V33.8169Z" fill="url(#paint11_linear_504_33236)"/>
<path d="M159.999 98.2005C159.992 96.1506 159.329 94.7506 158.362 93.3078C157.906 92.6293 157.374 91.9864 157.097 91.2079C156.883 90.6079 156.842 89.9508 156.835 89.3079C156.814 87.3651 157.125 85.4295 157 83.4938C156.883 81.5582 156.254 79.5297 154.762 78.3511C153.953 77.7083 152.924 77.4369 151.908 77.4726C151.908 77.4726 151.888 77.4726 151.874 77.4726C151.86 77.4726 151.853 77.4726 151.839 77.4726C150.824 77.4369 149.794 77.7083 148.986 78.3511C147.5 79.5297 146.864 81.5582 146.747 83.4938C146.63 85.4295 146.934 87.3651 146.913 89.3079C146.913 89.9508 146.864 90.6008 146.65 91.2079C146.374 91.9864 145.842 92.6293 145.386 93.3078C144.425 94.7506 143.762 96.1506 143.748 98.2005C143.707 106.493 148.136 108.622 151.832 108.615C151.832 108.615 151.853 108.615 151.867 108.615C151.881 108.615 151.888 108.615 151.901 108.615C155.598 108.615 160.027 106.493 159.985 98.2005H159.999Z" fill="#9792FF"/>
<path d="M151.57 87.8154H151.225V132H151.57V87.8154Z" fill="url(#paint12_linear_504_33236)"/>
<path d="M32.2804 78.4583H15.5391V131.999H32.2804V78.4583Z" fill="url(#paint13_linear_504_33236)"/>
<path d="M32.2732 78.4583H24.0234V131.999H32.2732V78.4583Z" fill="url(#paint14_linear_504_33236)"/>
<path d="M15.5469 78.4583H7V131.999H15.5469V78.4583Z" fill="#73A9B5"/>
<path d="M15.5469 78.4583H7V131.999H15.5469V78.4583Z" fill="url(#paint15_linear_504_33236)"/>
<path d="M22.9055 82.2012H18.5664V88.4153H22.9055V82.2012Z" fill="url(#paint16_linear_504_33236)"/>
<path d="M20.9769 82.1863H20.4863V88.4361H20.9769V82.1863Z" fill="#9792FF"/>
<path d="M23.1535 93.8301H18.8145V100.044H23.1535V93.8301Z" fill="url(#paint17_linear_504_33236)"/>
<path d="M21.2249 93.8225H20.7344V100.072H21.2249V93.8225Z" fill="#9792FF"/>
<path d="M23.3957 105.464H19.0566V111.678H23.3957V105.464Z" fill="url(#paint18_linear_504_33236)"/>
<path d="M21.4749 105.45H20.9844V111.7H21.4749V105.45Z" fill="#9792FF"/>
<path d="M23.6438 117.092H19.3047V123.306H23.6438V117.092Z" fill="url(#paint19_linear_504_33236)"/>
<path d="M21.7171 117.085H21.2266V123.335H21.7171V117.085Z" fill="#9792FF"/>
<path d="M40.109 100.072H22.2207V131.992H40.109V100.072Z" fill="#D2D3FF"/>
<path d="M40.109 100.072H22.2207V102.258H40.109V100.072Z" fill="url(#paint20_linear_504_33236)"/>
<path d="M74.7805 100.072H40.1094V131.992H74.7805V100.072Z" fill="url(#paint21_linear_504_33236)"/>
<path d="M74.7805 100.072H40.1094V102.258H74.7805V100.072Z" fill="url(#paint22_linear_504_33236)"/>
<path d="M68.54 117.849H45.5664V131.999H68.54V117.849Z" fill="#D2D3FF"/>
<path d="M50.7635 117.849H50.418V131.999H50.7635V117.849Z" fill="url(#paint23_linear_504_33236)"/>
<path d="M55.3025 117.849H54.957V131.999H55.3025V117.849Z" fill="url(#paint24_linear_504_33236)"/>
<path d="M59.4959 117.849H59.1504V131.992H59.4959V117.849Z" fill="url(#paint25_linear_504_33236)"/>
<path d="M63.8357 117.849H63.4902V131.992H63.8357V117.849Z" fill="url(#paint26_linear_504_33236)"/>
<path d="M68.54 114.992H45.5664V117.079H68.54V114.992Z" fill="#D2D3FF"/>
<path d="M29.63 120.55H26.5898V131.528H29.63V120.55Z" fill="url(#paint27_linear_504_33236)"/>
<path d="M29.3163 121.243H26.5664V120.55H29.6273V131.535H29.3163V121.243Z" fill="url(#paint28_linear_504_33236)"/>
<path d="M29.6549 122.057H26.5664V122.428H29.6549V122.057Z" fill="url(#paint29_linear_504_33236)"/>
<path d="M35.7432 120.55H32.7031V131.528H35.7432V120.55Z" fill="url(#paint30_linear_504_33236)"/>
<path d="M35.4296 121.243H32.6797V120.55H35.7405V131.535H35.4296V121.243Z" fill="url(#paint31_linear_504_33236)"/>
<path d="M35.7682 122.049H32.6797V122.42H35.7682V122.049Z" fill="url(#paint32_linear_504_33236)"/>
<path d="M75.4149 97.3855H21.5703V100.043H75.4149V97.3855Z" fill="#D2D3FF"/>
<path d="M107.261 52.8525H98.0996V132H107.261V52.8525Z" fill="url(#paint33_linear_504_33236)"/>
<path d="M120.535 52.8525H107.262V132H120.535V52.8525Z" fill="url(#paint34_linear_504_33236)"/>
<path d="M103.434 57.059H98.0996V68.8087H103.434V57.059Z" fill="url(#paint35_linear_504_33236)"/>
<g opacity="0.55">
<path d="M103.433 68.8086H102.742V73.2156H103.433V68.8086Z" fill="#E9EAFF"/>
<path d="M103.433 78.3155H102.742V82.7225H103.433V78.3155Z" fill="#E9EAFF"/>
<path d="M103.433 87.822H102.742V92.229H103.433V87.822Z" fill="#E9EAFF"/>
<path d="M103.433 97.3348H102.742V101.742H103.433V97.3348Z" fill="#E9EAFF"/>
<path d="M103.433 106.843H102.742V111.25H103.433V106.843Z" fill="#E9EAFF"/>
<path d="M103.433 116.349H102.742V120.757H103.433V116.349Z" fill="#E9EAFF"/>
<path d="M103.433 125.856H102.742V130.263H103.433V125.856Z" fill="#E9EAFF"/>
</g>
<path d="M113.964 118.749C112.769 118.749 111.795 119.742 111.795 120.971V131.992H116.134V120.971C116.134 119.742 115.167 118.749 113.964 118.749Z" fill="url(#paint36_linear_504_33236)"/>
<path d="M113.963 118.749V131.999" stroke="#9792FF" stroke-width="1.67677"/>
<path d="M116.194 122.356H111.834" stroke="#9792FF" stroke-width="1.67677"/>
<path d="M146.173 95.3994H120.035V131.991H146.173V95.3994Z" fill="url(#paint37_linear_504_33236)"/>
<path d="M124.692 95.3994H120.035V131.991H124.692V95.3994Z" fill="url(#paint38_linear_504_33236)"/>
<path d="M130.33 99.2288H127.338V103.266H130.33V99.2288Z" fill="#E9EAFF"/>
<path d="M136.908 99.2288H133.916V103.266H136.908V99.2288Z" fill="#E9EAFF"/>
<path d="M142.718 99.2288H139.727V103.266H142.718V99.2288Z" fill="#E9EAFF"/>
<path d="M132.41 87.8154H120.533V95.4081H132.41V87.8154Z" fill="url(#paint39_linear_504_33236)"/>
<path d="M124.686 87.8154H120.533V95.4081H124.686V87.8154Z" fill="url(#paint40_linear_504_33236)"/>
<path d="M128.748 91.3723H127.256V95.4092H128.748V91.3723Z" fill="#E9EAFF"/>
<path d="M130.393 91.3723H128.9V95.4092H130.393V91.3723Z" fill="#E9EAFF"/>
</g>
<path d="M81.3516 121.304C80.1495 122.556 77.0442 122.243 75.6418 121.93L76.8439 125.686H77.7454C79.9091 125.686 81.051 122.764 81.3516 121.304Z" fill="white"/>
<path d="M61.5172 96.575C61.2768 97.8271 59.614 98.1401 58.8126 98.1401L57.0095 96.575C56.4085 95.01 55.5069 93.7579 58.8126 92.8188C61.4571 92.0676 62.9196 95.01 63.3203 96.575C62.8195 96.0534 61.7576 95.323 61.5172 96.575Z" fill="white"/>
<path d="M57.01 96.2626L59.4141 98.4537L56.4089 98.1407L57.01 96.2626Z" fill="#ED1B8A"/>
<path d="M59.4146 98.4538C61.5783 99.2051 61.9189 102.94 61.8187 104.714C62.2995 105.465 62.019 108.575 61.8187 110.035C64.2228 115.356 66.3264 116.609 73.2383 119.739C78.7677 122.243 79.3487 131.842 78.948 136.329H70.8342L70.5336 134.138L68.43 135.703H62.4198L61.8187 134.138L58.8136 136.329H48.2956C48.2956 134.075 49.698 132.677 50.3992 132.259C50.5995 132.572 50.6997 132.197 49.4977 128.19C48.2956 124.184 48.9968 115.461 49.4977 111.6L50.3992 105.653C47.7547 104.902 47.4942 102.21 47.6946 100.958L48.8966 100.645C48.1754 100.645 47.5944 100.227 47.3941 100.019C47.2939 100.019 47.2137 99.6433 47.6946 98.1408C48.1754 96.6383 49.097 97.0974 49.4977 97.5147C49.9985 98.3495 51.3007 99.7059 52.5028 98.4538C54.0054 96.8887 56.7099 97.5148 59.4146 98.4538Z" fill="white"/>
<path d="M54.606 133.511C60.3155 135.389 59.1137 133.761 57.9117 129.755C68.4294 112.225 68.4301 129.129 68.4301 129.129C68.4301 129.129 73.3384 131.843 72.9377 136.329H70.8341L70.5336 134.138L68.43 135.703H62.4197L61.8186 134.138L58.8135 136.329H54.3058C54.3058 134.076 53.9048 133.928 54.606 133.511Z" fill="url(#paint41_linear_504_33236)"/>
<path d="M53.4052 105.966L56.7109 100.332H59.4155C60.1367 100.332 60.9181 101.584 61.2186 102.21C61.3188 103.253 61.8797 105.465 63.3222 105.966C64.7647 106.467 65.3256 107.218 65.4258 107.531C65.1253 107.74 64.2237 108.533 63.0217 110.035C61.8196 111.538 60.1167 111.079 59.4155 110.661C58.8145 110.348 56.5306 110.223 54.6073 109.722C52.684 109.222 53.1047 106.488 53.4052 105.966Z" fill="url(#paint42_linear_504_33236)"/>
<ellipse cx="0.613356" cy="0.306678" rx="0.613356" ry="0.306678" transform="matrix(-0.692555 0.721365 0.692555 0.721365 53.3164 98.7285)" fill="#1F0247"/>
<path d="M49.1968 110.974C50.0382 111.475 58.1621 109.826 60.9168 109.409L61.8184 110.661C57.0101 111.913 51.4005 113.269 49.1968 113.165V110.974Z" fill="#ED1B8A"/>
<path d="M54.3053 106.905L56.7095 100.019L60.0151 100.332C60.7363 100.332 61.5177 101.584 61.8182 102.21C61.9184 103.253 62.4793 105.465 63.9218 105.966C65.3643 106.467 65.9252 107.218 66.0254 107.531C65.7249 107.74 64.8233 108.533 63.6213 110.035C62.4192 111.538 60.7163 111.078 60.0151 110.661C59.4141 110.348 57.7312 109.597 55.8079 109.096C53.8846 108.595 54.0048 107.427 54.3053 106.905Z" fill="white"/>
<ellipse cx="1.20206" cy="1.25206" rx="1.20206" ry="1.25206" transform="matrix(-1 0 0 1 48.8965 110.974)" fill="#FFCC00"/>
<path d="M47.6958 98.1401C48.1764 98.1401 49.1977 97.7229 49.498 97.5143C49.2578 97.264 48.6971 96.8886 48.5969 96.8886C48.1164 96.8886 47.796 97.8272 47.6958 98.1401Z" fill="#1F0247"/>
<path fill-rule="evenodd" clip-rule="evenodd" d="M100.997 79.612L92.969 72.3907C90.6482 72.2765 90.8887 68.4937 88.3143 69.4513C87.2229 69.8576 87.2449 69.1266 87.2449 69.1266C87.2449 69.1266 86.3017 69.4128 86.6867 68.6771C86.6867 68.6771 87.2418 68.0494 88.654 67.8763C90.0666 67.7028 91.5453 67.5963 93.7748 70.0273C97.0288 72.2589 104.357 76.9688 104.357 76.9688L102.764 79.7513L100.997 79.612Z" fill="#FE88C1"/>
<path fill-rule="evenodd" clip-rule="evenodd" d="M92.9971 71.5799C93.0021 71.5865 93.0063 71.5939 93.0098 71.6017C93.0315 71.6525 93.0094 71.7119 92.961 71.7342C92.15 72.1102 91.2816 71.2236 91.2454 71.1854C91.2105 71.1456 91.2073 71.0829 91.245 71.0439C91.2824 71.0046 91.3433 71.0043 91.3811 71.0433C91.3893 71.0514 92.1922 71.8706 92.8826 71.5508C92.9238 71.532 92.9704 71.5451 92.9971 71.5799Z" fill="#31166F"/>
<path d="M89.9237 69.7865C90.4864 70.0948 91.6869 70.1657 92.2168 70.1626L93.2993 71.4712L92.5045 71.4759C92.0675 71.3648 90.9779 71.0465 90.1155 70.662C89.0375 70.1813 89.2202 69.401 89.9237 69.7865Z" fill="#FE88C1"/>
<path fill-rule="evenodd" clip-rule="evenodd" d="M100.164 74.1747L100.924 74.6389L102.478 75.5878L103.175 77.2852L101.16 79.7527C101.16 79.7527 100.395 79.2441 99.2527 78.1932C99.0445 78.0015 98.7048 77.7666 98.4745 77.5578C99.0103 76.5033 99.6641 75.247 100.164 74.1747Z" fill="#ED1B8A"/>
<path fill-rule="evenodd" clip-rule="evenodd" d="M100.718 74.513L98.9013 77.9566L99.4816 78.4014L101.363 74.8639L100.718 74.513Z" fill="white"/>
<path fill-rule="evenodd" clip-rule="evenodd" d="M124.799 125.543L126.301 132.368H125.55L124.487 133.329L123.036 133.442L120.185 123.887L124.799 125.543Z" fill="#FE88C1"/>
<path fill-rule="evenodd" clip-rule="evenodd" d="M103.502 125.543L102 132.368H102.751L103.814 133.329L105.265 133.442L108.116 123.887L103.502 125.543Z" fill="#FE88C1"/>
<path fill-rule="evenodd" clip-rule="evenodd" d="M114.456 58.6001C114.721 58.3314 115.173 58.4704 115.502 58.6525C116.206 59.0423 116.857 59.5821 117.219 60.3048C117.58 61.0275 117.604 61.9551 117.136 62.6131C116.987 62.8235 116.793 63.0021 116.671 63.2295C116.412 63.7157 116.533 64.3059 116.565 64.8567C116.678 66.7979 115.513 68.6963 113.845 69.6766C113.012 70.166 112.026 70.4525 111.078 70.2783C110.103 70.0985 109.251 69.4357 108.723 68.5903C108.195 67.7453 107.969 66.7332 107.955 65.7351C107.947 65.0909 108.027 64.4313 108.312 63.8546C108.743 62.9802 109.609 62.3841 110.531 62.0821C111.515 61.7602 112.672 61.6824 113.35 60.895C113.785 60.3909 113.919 59.7011 114.172 59.0851C114.258 58.8764 114.366 58.6763 114.499 58.495C114.603 58.3533 114.723 58.2223 114.86 58.1136C115 58.0032 114.818 57.7897 114.976 57.7111C115.084 57.6571 115.64 57.3309 115.75 57.2789C116.067 57.1285 116.442 57.0785 116.784 57.0364C117.499 56.9487 118.234 57.0177 118.912 57.263C118.995 57.2932 119.077 57.3257 119.158 57.3607C119.902 57.6841 121.348 58.5394 121.706 60.1611C121.905 61.0648 122.003 61.9713 122.026 62.8969C122.048 63.822 122.131 65.2572 122.877 65.7994C123.305 66.1101 123.847 66.209 124.372 66.2645C126.19 66.457 128.221 66.2959 129.624 67.4746C130.905 68.5502 131.204 70.5319 130.562 72.0826C130.366 72.3409 130.139 72.5775 129.869 72.7787C129.1 73.3506 128.228 73.3419 127.316 73.3669C126.964 73.3764 126.628 73.3931 126.31 73.5574C126.037 73.6983 125.821 73.9249 125.644 74.1738C125.27 74.7005 125.107 75.3367 124.781 75.8895C124.592 76.2094 124.368 76.4932 124.117 76.7417C123.728 77.0191 123.477 77.2302 123.268 77.383C123.043 77.51 122.805 77.6097 122.559 77.6914C122.42 77.7069 122.258 77.7069 122.054 77.691C119.695 77.5096 120.217 74.1555 117.905 74.6643C117.17 74.8259 116.422 75.0227 115.675 74.9279C115.6 74.9179 115.526 74.8993 115.452 74.8842C115.21 74.6366 114.977 74.3802 114.76 74.1051C114.281 73.501 113.793 72.8386 113.097 72.4735C112.873 72.3556 112.674 72.6981 112.899 72.816C113.661 73.2161 114.158 73.9849 114.691 74.6465C114.511 74.5719 114.333 74.4913 114.158 74.4036C113.377 74.0114 112.634 73.5423 111.942 73.0053C111.016 72.2858 110.129 71.3312 110.055 70.156C110.008 69.4051 110.327 68.6387 110.892 68.1462C111.623 67.5088 112.789 67.2182 113.025 66.2744C113.201 65.5644 112.73 64.8758 112.526 64.1733C112.332 63.5073 112.422 62.783 112.712 62.1591C112.858 61.8435 113.055 61.5518 113.294 61.3002C113.537 61.045 113.832 60.8485 114.075 60.5929C114.248 60.4112 114.398 60.2095 114.575 60.0317C114.834 59.773 113.991 59.0744 114.161 58.7506C114.438 58.2247 114.47 57.4821 115.75 57.2789" fill="#1F0247"/>
<path fill-rule="evenodd" clip-rule="evenodd" d="M114.072 94.5164L110.709 110.828L109.791 124.205L103.37 126.116L103.657 110.604C103.657 110.604 102.7 106.128 104.281 105.147C104.614 102.77 108.362 86.9397 108.362 86.9397L114.072 94.5164Z" fill="#5F00FF"/>
<path fill-rule="evenodd" clip-rule="evenodd" d="M117.514 82.4812C117.514 82.4812 120.554 87.7271 121.336 92.506C121.756 95.0766 126.301 126.715 126.301 126.715L120.934 127.072L112.648 94.9584C112.648 94.9584 111.985 93.6415 110.85 93.8225C110.361 93.9775 110.882 93.4253 110.17 92.9565C109.24 92.3443 108.859 91.1584 108.407 90.9034C107.608 90.4532 108.034 86.5681 108.407 86.3428C108.779 86.1175 117.514 82.4812 117.514 82.4812Z" fill="#5F00FF"/>
<path fill-rule="evenodd" clip-rule="evenodd" d="M120.188 75.0204L117.892 78.8969C117.892 78.8969 117.422 79.8998 117.263 80.7129C117.103 81.5264 118.974 86.3736 118.974 86.3736C118.974 86.3736 113.354 87.4466 111.506 87.2297C110.618 87.1254 107.956 86.7895 107.956 86.7895L108.223 76.0775C108.223 76.0775 107.664 73.2859 108.515 71.6593C109.366 70.0327 120.188 75.0204 120.188 75.0204Z" fill="#ED1B8A"/>
<path fill-rule="evenodd" clip-rule="evenodd" d="M117.107 69.3821L119.688 69.9732C119.688 69.9732 121.869 70.6771 122.701 73.8863C123.532 77.0955 124.753 86.7238 124.753 86.7238C124.753 86.7238 125.064 89.0604 123.272 88.8351C121.48 88.6103 120.94 87.1177 120.94 87.1177L118.181 75.9414L108.321 73.0249L103.4 79.8545C103.4 79.8545 101.738 81.3186 100.465 79.3196C99.6075 77.9726 102.595 74.0834 102.595 74.0834L105.686 69.3821C105.686 69.3821 106.648 67.9462 109.323 68.1714C111.998 68.3967 115.22 69.3255 115.22 69.3255L117.107 69.3821Z" fill="#ED1B8A"/>
<path fill-rule="evenodd" clip-rule="evenodd" d="M116.678 71.0282C115.477 71.5706 113.694 71.3614 112.551 70.6116C111.9 70.185 111.412 69.4585 111.153 68.675C111.096 68.5017 111.052 68.3253 111.014 68.1475C113.075 68.5323 114.865 69.0612 114.865 69.0612L116.861 69.1227L118.658 69.5649C118.258 70.1702 117.307 70.7445 116.678 71.0282Z" fill="#FE88C1"/>
<path fill-rule="evenodd" clip-rule="evenodd" d="M112.543 61.247C112.543 63.4461 114.935 64.9627 116.804 64.9627C118.672 64.9627 120.188 64.2454 120.188 60.9816C120.188 58.7824 118.672 57 116.804 57C114.935 57 112.543 59.0482 112.543 61.247Z" fill="#1F0247"/>
<path fill-rule="evenodd" clip-rule="evenodd" d="M117.129 65.2681L116.174 68.7165C116.174 68.7165 115.796 69.7583 114.165 69.7405C112.534 69.7223 112.395 68.6085 112.633 67.8364C112.872 67.0643 113.111 64.9631 113.111 64.9631L117.129 65.2681Z" fill="#FE88C1"/>
<path fill-rule="evenodd" clip-rule="evenodd" d="M114.071 66.7787C114.149 66.0808 114.205 65.398 114.205 65.398L117.129 64.9631L116.321 68.1482C115.577 67.6771 114.828 67.2179 114.071 66.7787Z" fill="#ED5196"/>
<path fill-rule="evenodd" clip-rule="evenodd" d="M112.542 63.0229C112.542 64.937 112.901 66.9522 115.738 66.4883C116.68 66.3346 117.961 66.0919 118.65 63.6156C118.776 63.1656 117.339 64.4059 117.791 61.725C118.059 60.1363 116.886 58.593 115.563 58.593C113.798 58.593 112.542 61.1085 112.542 63.0229Z" fill="#FE88C1"/>
<path fill-rule="evenodd" clip-rule="evenodd" d="M117.339 63.8244C116.913 64.2213 117.158 64.6962 117.887 64.8855C118.616 65.0744 119.552 64.9056 119.978 64.5086C120.405 64.112 120.159 63.6371 119.43 63.4478C118.702 63.2589 117.765 63.4274 117.339 63.8244Z" fill="#FE88C1"/>
<path fill-rule="evenodd" clip-rule="evenodd" d="M117.129 69.4119C117.028 69.3234 117.129 68.1475 117.129 68.1475L114.288 68.6474L114.071 69.74L117.129 69.4119Z" fill="white"/>
<path fill-rule="evenodd" clip-rule="evenodd" d="M112.931 68.1475L114.072 68.8625L113.892 69.7392L112.544 68.8864L112.931 68.1475Z" fill="white"/>
<path fill-rule="evenodd" clip-rule="evenodd" d="M121.824 83.7979L111.766 82.5393C111.766 82.5393 111.11 82.1839 110.9 81.7738C110.69 81.3634 108.658 79.397 107.95 79.397L108.143 79.9994C108.143 79.9994 109.718 81.9654 105.832 80.406C105.832 80.406 104.807 80.0779 104.886 80.6249C104.886 80.6249 104.703 83.1413 105.543 83.7979C106.383 84.4545 108.116 84.6184 110.086 84.7553C112.056 84.8919 123.558 88.2838 123.558 88.2838C123.558 88.2838 124.162 87.436 124.214 87.2171C124.266 86.9983 123.872 85.0011 123.847 84.7826C123.82 84.5638 121.824 83.7979 121.824 83.7979Z" fill="#FE88C1"/>
<path fill-rule="evenodd" clip-rule="evenodd" d="M107.349 81.9542C107.398 81.9542 107.44 81.9153 107.445 81.8634C107.45 81.8088 107.412 81.7594 107.358 81.7538C106.217 81.6349 104.991 80.6767 104.979 80.6671C104.937 80.6337 104.877 80.6422 104.844 80.6864C104.812 80.7305 104.82 80.7936 104.863 80.8269C104.914 80.8679 106.144 81.8289 107.34 81.9538C107.343 81.9542 107.346 81.9542 107.349 81.9542Z" fill="#31166F"/>
<path fill-rule="evenodd" clip-rule="evenodd" d="M107.181 82.8693C107.226 82.8693 107.266 82.8368 107.275 82.7898C107.286 82.7352 107.253 82.6822 107.201 82.6705C105.757 82.3541 105.004 81.4549 104.996 81.4457C104.961 81.4039 104.9 81.3987 104.86 81.4348C104.82 81.4706 104.815 81.534 104.849 81.5758C104.881 81.6151 105.65 82.5356 107.161 82.8673C107.168 82.8685 107.175 82.8693 107.181 82.8693Z" fill="#31166F"/>
<path fill-rule="evenodd" clip-rule="evenodd" d="M106.882 83.6089C106.926 83.6089 106.966 83.5772 106.976 83.5302C106.988 83.476 106.955 83.4227 106.903 83.4106C105.574 83.1043 105.054 82.4978 105.049 82.4918C105.013 82.4501 104.953 82.4456 104.913 82.4818C104.873 82.5179 104.868 82.5809 104.903 82.6231C104.925 82.65 105.464 83.2842 106.861 83.6065C106.868 83.6081 106.875 83.6089 106.882 83.6089Z" fill="#31166F"/>
<path fill-rule="evenodd" clip-rule="evenodd" d="M119.185 87.1318C119.079 86.1023 118.828 85.0939 118.658 84.0737L122.203 84.4771C122.203 84.4771 124.345 85.2239 124.373 85.4373C124.402 85.6503 124.825 87.5974 124.768 87.8108C124.712 88.0243 124.064 88.8513 124.064 88.8513C124.064 88.8513 121.927 88.8349 119.258 88.1515C119.242 87.9996 119.201 87.2841 119.185 87.1318Z" fill="#ED1B8A"/>
<path fill-rule="evenodd" clip-rule="evenodd" d="M120.092 61.6893C120.092 61.6893 118.008 62.0708 116.431 61.2481L117.256 59.4465L116.076 61.193C116.076 61.193 114.205 60.574 114.069 60.3978L114.915 59.1469L113.783 60.2228C113.783 60.2228 112.725 59.8229 112.543 59.2035C112.543 59.2035 113.964 56.2729 117.016 57.1711C118.646 57.6509 120.651 60.7097 120.092 61.6893Z" fill="#1F0247"/>
<path fill-rule="evenodd" clip-rule="evenodd" d="M126.704 130.262H125.962C125.962 130.262 125.604 130.182 125.301 130.665C124.999 131.149 124.667 132.018 123.844 131.874C123.02 131.73 122.662 130.655 122.662 130.655C122.662 130.655 122.468 130.397 122.138 130.504L121.726 135.124C121.726 135.124 121.643 135.687 121.946 135.849L121.973 136.627H132.178V135.876C132.178 135.876 132.921 134.667 131.793 133.969C130.665 133.27 128.299 132.599 127.474 131.766C126.649 130.934 126.787 130.504 126.704 130.262Z" fill="white"/>
<path fill-rule="evenodd" clip-rule="evenodd" d="M102.421 129.921L103.436 130.14C103.436 130.14 104.033 130.176 104.085 130.76C104.137 131.343 104.802 132.401 105.467 131.817C106.132 131.234 106.132 130.468 106.132 130.468C106.132 130.468 106.132 130.213 106.482 130.249C106.833 130.286 106.798 134.881 106.798 134.881C106.798 134.881 106.553 134.954 106.482 135.136C106.413 135.318 106.482 135.501 106.482 135.501H95.804L95.979 134.626C95.979 134.626 95.7342 134.079 95.804 133.568C95.8742 133.057 96.2242 132.291 98.1501 131.853C100.076 131.417 102.421 129.921 102.421 129.921Z" fill="white"/>
<path fill-rule="evenodd" clip-rule="evenodd" d="M95.9753 134.619H106.797C106.796 134.782 106.796 134.88 106.796 134.88C106.796 134.88 106.551 134.953 106.481 135.135C106.411 135.317 106.481 135.5 106.481 135.5H95.8022L95.9773 134.625C95.9773 134.625 95.9757 134.62 95.9753 134.619Z" fill="#EDEDED"/>
<path fill-rule="evenodd" clip-rule="evenodd" d="M120.188 84.0737L120.979 87.1608L121.717 87.2588L120.921 84.1353L120.188 84.0737Z" fill="white"/>
<path fill-rule="evenodd" clip-rule="evenodd" d="M120.188 84.0728L117.535 74.5912C117.52 74.5376 117.466 74.5049 117.414 74.5223C117.361 74.5376 117.331 74.5932 117.346 74.6464L119.916 83.8358L111.124 82.7308C111.072 82.7223 111.021 82.763 111.015 82.8187C111.008 82.8735 111.046 82.9239 111.101 82.9307L120.188 84.0728Z" fill="#31166F"/>
<path fill-rule="evenodd" clip-rule="evenodd" d="M118.121 65.4774C118.121 65.6632 118.265 65.8138 118.443 65.8138C118.621 65.8138 118.766 65.6632 118.766 65.4774C118.766 65.2919 118.621 65.1414 118.443 65.1414C118.265 65.1414 118.121 65.2919 118.121 65.4774Z" fill="#ED1B8A"/>
<path fill-rule="evenodd" clip-rule="evenodd" d="M114.568 62.9993C114.487 63.1739 114.637 63.4248 114.904 63.5596C115.171 63.6949 115.453 63.6632 115.535 63.4894C115.616 63.3148 115.466 63.0639 115.199 62.9286C114.932 62.7933 114.65 62.8251 114.568 62.9993Z" fill="white"/>
<path fill-rule="evenodd" clip-rule="evenodd" d="M114.577 63.0059C114.504 63.1849 114.569 63.3844 114.72 63.4506C114.872 63.5173 115.054 63.4262 115.126 63.2471C115.199 63.0677 115.135 62.8686 114.983 62.802C114.831 62.7353 114.649 62.8269 114.577 63.0059Z" fill="#1F0247"/>
<path fill-rule="evenodd" clip-rule="evenodd" d="M114.762 64.7608C114.762 64.7608 113.625 64.4425 112.754 64.6131C112.754 64.6131 112.662 65.3011 113.377 65.4548C114.091 65.6082 114.689 65.1305 114.762 64.7608Z" fill="#ED1B8A"/>
<path fill-rule="evenodd" clip-rule="evenodd" d="M115.057 61.8971C115.035 61.9834 115.307 62.1319 115.603 62.3535C115.901 62.5711 116.125 62.7894 116.196 62.7389C116.265 62.6939 116.124 62.3523 115.777 62.097C115.431 61.8401 115.075 61.8152 115.057 61.8971Z" fill="#1F0247"/>
<path fill-rule="evenodd" clip-rule="evenodd" d="M112.655 60.9326C112.671 61.0201 112.978 61.0261 113.338 61.0867C113.699 61.1421 113.994 61.2333 114.035 61.155C114.077 61.0831 113.804 60.8427 113.384 60.7761C112.965 60.7074 112.636 60.8507 112.655 60.9326Z" fill="#1F0247"/>
<path fill-rule="evenodd" clip-rule="evenodd" d="M115.534 63.4894C115.534 63.4894 115.328 63.0101 115.01 62.858C115.01 62.858 114.731 62.8038 114.754 62.5931C114.754 62.5931 114.827 62.6802 114.984 62.6778C115.139 62.6754 115.68 62.9937 115.534 63.4894Z" fill="#1F0247"/>
<path fill-rule="evenodd" clip-rule="evenodd" d="M112.402 61.8039C112.321 61.9793 112.472 62.2306 112.74 62.3662C113.007 62.5019 113.291 62.4702 113.372 62.2956C113.454 62.1206 113.303 61.8689 113.035 61.7332C112.767 61.5971 112.484 61.6289 112.402 61.8039Z" fill="white"/>
<path fill-rule="evenodd" clip-rule="evenodd" d="M112.403 61.8126C112.331 61.9916 112.395 62.1911 112.546 62.2578C112.698 62.3244 112.88 62.2333 112.953 62.0538C113.025 61.8744 112.961 61.6753 112.809 61.6087C112.657 61.542 112.476 61.6336 112.403 61.8126Z" fill="#1F0247"/>
<path fill-rule="evenodd" clip-rule="evenodd" d="M113.374 62.2966C113.374 62.2966 113.167 61.8157 112.847 61.6631C112.847 61.6631 112.568 61.6085 112.59 61.3966C112.59 61.3966 112.665 61.4849 112.821 61.4821C112.977 61.4793 113.52 61.7992 113.374 62.2966Z" fill="#1F0247"/>
<path fill-rule="evenodd" clip-rule="evenodd" d="M113.025 63.9857C113.067 63.9857 113.106 63.9564 113.118 63.9115C113.132 63.8581 113.102 63.8031 113.05 63.7886C112.981 63.769 112.918 63.7184 112.883 63.653C112.848 63.5875 112.839 63.5056 112.86 63.4342C112.89 63.3302 112.979 63.2415 113.057 63.1628C113.096 63.1243 113.097 63.0609 113.06 63.0211C113.024 62.9802 112.963 62.9798 112.924 63.0179C112.833 63.1086 112.72 63.2222 112.675 63.3764C112.639 63.5004 112.654 63.6369 112.715 63.7509C112.776 63.8641 112.88 63.9484 113 63.9821C113.008 63.9845 113.017 63.9857 113.025 63.9857Z" fill="#1F0247"/>
<path fill-rule="evenodd" clip-rule="evenodd" d="M113.678 65.1568C114.177 65.1568 114.664 64.9497 114.698 64.9349C114.748 64.914 114.771 64.855 114.75 64.804C114.73 64.7522 114.674 64.7273 114.624 64.7498C114.612 64.755 113.352 65.2905 112.928 64.6097C112.899 64.5628 112.839 64.5499 112.795 64.58C112.75 64.6101 112.738 64.6723 112.766 64.7185C112.976 65.0561 113.33 65.1568 113.678 65.1568Z" fill="#F746A7"/>
<path fill-rule="evenodd" clip-rule="evenodd" d="M112.138 95.4094C112.15 95.4094 112.163 95.407 112.175 95.4014C112.224 95.3805 112.247 95.3215 112.227 95.2705C112.184 95.1641 111.164 92.6605 109.451 92.3541C109.399 92.342 109.349 92.381 109.339 92.436C109.331 92.4902 109.366 92.542 109.418 92.5517C111.027 92.8396 112.039 95.3227 112.049 95.348C112.064 95.3862 112.1 95.4094 112.138 95.4094Z" fill="#31166F"/>
<path d="M86.9525 67.1003C86.1155 66.5418 86.7782 66.5185 87.2141 66.5767L91.1376 67.7984L89.8297 68.1475C89.2194 68.0311 87.7895 67.6588 86.9525 67.1003Z" fill="#FE88C1"/>
<defs>
<linearGradient id="paint0_linear_504_33236" x1="31.9957" y1="-21.961" x2="116.421" y2="138.726" gradientUnits="userSpaceOnUse">
<stop offset="0.28" stop-color="#BFC4FF"/>
<stop offset="1" stop-color="#7272F7"/>
</linearGradient>
<linearGradient id="paint1_linear_504_33236" x1="113.852" y1="9.10229" x2="39.031" y2="56.8247" gradientUnits="userSpaceOnUse">
<stop offset="0.28" stop-color="#E7E8FF"/>
<stop offset="1" stop-color="#B4B5FF"/>
</linearGradient>
<linearGradient id="paint2_linear_504_33236" x1="118.267" y1="16.0236" x2="43.446" y2="63.746" gradientUnits="userSpaceOnUse">
<stop offset="0.28" stop-color="#E7E8FF"/>
<stop offset="1" stop-color="#B4B5FF"/>
</linearGradient>
<linearGradient id="paint3_linear_504_33236" x1="122.482" y1="22.6226" x2="47.6608" y2="70.3449" gradientUnits="userSpaceOnUse">
<stop offset="0.28" stop-color="#E7E8FF"/>
<stop offset="1" stop-color="#B4B5FF"/>
</linearGradient>
<linearGradient id="paint4_linear_504_33236" x1="104.034" y1="48.8906" x2="66.8378" y2="67.7698" gradientUnits="userSpaceOnUse">
<stop offset="0.28" stop-color="#E7E8FF"/>
<stop offset="1" stop-color="#B4B5FF"/>
</linearGradient>
<linearGradient id="paint5_linear_504_33236" x1="104.034" y1="58.2407" x2="66.8381" y2="77.113" gradientUnits="userSpaceOnUse">
<stop offset="0.28" stop-color="#E7E8FF"/>
<stop offset="1" stop-color="#B4B5FF"/>
</linearGradient>
<linearGradient id="paint6_linear_504_33236" x1="92.9234" y1="-12.646" x2="14.4843" y2="140.433" gradientUnits="userSpaceOnUse">
<stop offset="0.28" stop-color="#BFC4FF"/>
<stop offset="1" stop-color="#7272F7"/>
</linearGradient>
<linearGradient id="paint7_linear_504_33236" x1="-5.70723" y1="14.6175" x2="74.1509" y2="135.363" gradientUnits="userSpaceOnUse">
<stop offset="0.28" stop-color="#BFC4FF"/>
<stop offset="1" stop-color="#7272F7"/>
</linearGradient>
<linearGradient id="paint8_linear_504_33236" x1="39.1552" y1="13.8961" x2="9.55781" y2="69.5662" gradientUnits="userSpaceOnUse">
<stop offset="0.28" stop-color="#BFC4FF"/>
<stop offset="1" stop-color="#7272F7"/>
</linearGradient>
<linearGradient id="paint9_linear_504_33236" x1="55.3577" y1="62.7012" x2="-2.89621" y2="97.2753" gradientUnits="userSpaceOnUse">
<stop offset="0.28" stop-color="#BFC4FF"/>
<stop offset="1" stop-color="#7272F7"/>
</linearGradient>
<linearGradient id="paint10_linear_504_33236" x1="43.2249" y1="74.0359" x2="13.8067" y2="111.278" gradientUnits="userSpaceOnUse">
<stop offset="0.28" stop-color="#BFC4FF"/>
<stop offset="1" stop-color="#7272F7"/>
</linearGradient>
<linearGradient id="paint11_linear_504_33236" x1="74.8205" y1="59.7947" x2="20.496" y2="68.4917" gradientUnits="userSpaceOnUse">
<stop offset="0.28" stop-color="#BFC4FF"/>
<stop offset="1" stop-color="#7272F7"/>
</linearGradient>
<linearGradient id="paint12_linear_504_33236" x1="164.782" y1="92.101" x2="138.834" y2="124.409" gradientUnits="userSpaceOnUse">
<stop offset="0.28" stop-color="#BFC4FF"/>
<stop offset="1" stop-color="#7272F7"/>
</linearGradient>
<linearGradient id="paint13_linear_504_33236" x1="-12.0777" y1="54.7947" x2="39.426" y2="122.337" gradientUnits="userSpaceOnUse">
<stop offset="0.28" stop-color="#BFC4FF"/>
<stop offset="1" stop-color="#7272F7"/>
</linearGradient>
<linearGradient id="paint14_linear_504_33236" x1="14.2052" y1="104.057" x2="32.7647" y2="105.515" gradientUnits="userSpaceOnUse">
<stop offset="0.28" stop-color="#9DA1FF" stop-opacity="0"/>
<stop offset="1" stop-color="#7272F7"/>
</linearGradient>
<linearGradient id="paint15_linear_504_33236" x1="28.495" y1="81.6082" x2="-10.5606" y2="131.717" gradientUnits="userSpaceOnUse">
<stop offset="0.28" stop-color="#BFC4FF"/>
<stop offset="1" stop-color="#7272F7"/>
</linearGradient>
<linearGradient id="paint16_linear_504_33236" x1="20.2385" y1="94.2794" x2="21.1022" y2="79.7331" gradientUnits="userSpaceOnUse">
<stop offset="0.28" stop-color="#E7E8FF"/>
<stop offset="1" stop-color="#B4B5FF"/>
</linearGradient>
<linearGradient id="paint17_linear_504_33236" x1="20.4865" y1="105.908" x2="21.3429" y2="91.3691" gradientUnits="userSpaceOnUse">
<stop offset="0.28" stop-color="#E7E8FF"/>
<stop offset="1" stop-color="#B4B5FF"/>
</linearGradient>
<linearGradient id="paint18_linear_504_33236" x1="20.7287" y1="117.542" x2="21.5924" y2="102.996" gradientUnits="userSpaceOnUse">
<stop offset="0.28" stop-color="#E7E8FF"/>
<stop offset="1" stop-color="#B4B5FF"/>
</linearGradient>
<linearGradient id="paint19_linear_504_33236" x1="20.9768" y1="129.17" x2="21.8331" y2="114.631" gradientUnits="userSpaceOnUse">
<stop offset="0.28" stop-color="#E7E8FF"/>
<stop offset="1" stop-color="#B4B5FF"/>
</linearGradient>
<linearGradient id="paint20_linear_504_33236" x1="30.9334" y1="108.031" x2="31.4875" y2="92.7707" gradientUnits="userSpaceOnUse">
<stop offset="0.28" stop-color="#BFC4FF"/>
<stop offset="1" stop-color="#7272F7"/>
</linearGradient>
<linearGradient id="paint21_linear_504_33236" x1="88.1432" y1="78.6365" x2="15.4569" y2="161.495" gradientUnits="userSpaceOnUse">
<stop offset="0.28" stop-color="#BFC4FF"/>
<stop offset="1" stop-color="#7272F7"/>
</linearGradient>
<linearGradient id="paint22_linear_504_33236" x1="57.4035" y1="107.195" x2="57.47" y2="98.5854" gradientUnits="userSpaceOnUse">
<stop offset="0.28" stop-color="#BFC4FF"/>
<stop offset="1" stop-color="#7272F7"/>
</linearGradient>
<linearGradient id="paint23_linear_504_33236" x1="61.1351" y1="105.364" x2="43.5604" y2="135.86" gradientUnits="userSpaceOnUse">
<stop offset="0.28" stop-color="#BFC4FF"/>
<stop offset="1" stop-color="#7272F7"/>
</linearGradient>
<linearGradient id="paint24_linear_504_33236" x1="64.5962" y1="107.364" x2="47.0216" y2="137.853" gradientUnits="userSpaceOnUse">
<stop offset="0.28" stop-color="#BFC4FF"/>
<stop offset="1" stop-color="#7272F7"/>
</linearGradient>
<linearGradient id="paint25_linear_504_33236" x1="67.7945" y1="109.207" x2="50.2269" y2="139.703" gradientUnits="userSpaceOnUse">
<stop offset="0.28" stop-color="#BFC4FF"/>
<stop offset="1" stop-color="#7272F7"/>
</linearGradient>
<linearGradient id="paint26_linear_504_33236" x1="71.1117" y1="111.114" x2="53.537" y2="141.61" gradientUnits="userSpaceOnUse">
<stop offset="0.28" stop-color="#BFC4FF"/>
<stop offset="1" stop-color="#7272F7"/>
</linearGradient>
<linearGradient id="paint27_linear_504_33236" x1="35.4338" y1="113.822" x2="20.0218" y2="137.898" gradientUnits="userSpaceOnUse">
<stop offset="0.28" stop-color="#E7E8FF"/>
<stop offset="1" stop-color="#B4B5FF"/>
</linearGradient>
<linearGradient id="paint28_linear_504_33236" x1="26.5664" y1="126.043" x2="29.6273" y2="126.043" gradientUnits="userSpaceOnUse">
<stop offset="0.28" stop-color="#BFC4FF"/>
<stop offset="1" stop-color="#7272F7"/>
</linearGradient>
<linearGradient id="paint29_linear_504_33236" x1="26.5664" y1="122.242" x2="29.6549" y2="122.242" gradientUnits="userSpaceOnUse">
<stop offset="0.28" stop-color="#BFC4FF"/>
<stop offset="1" stop-color="#7272F7"/>
</linearGradient>
<linearGradient id="paint30_linear_504_33236" x1="41.5402" y1="113.814" x2="26.128" y2="137.898" gradientUnits="userSpaceOnUse">
<stop offset="0.28" stop-color="#E7E8FF"/>
<stop offset="1" stop-color="#B4B5FF"/>
</linearGradient>
<linearGradient id="paint31_linear_504_33236" x1="32.6797" y1="126.043" x2="35.7405" y2="126.043" gradientUnits="userSpaceOnUse">
<stop offset="0.28" stop-color="#BFC4FF"/>
<stop offset="1" stop-color="#7272F7"/>
</linearGradient>
<linearGradient id="paint32_linear_504_33236" x1="32.6797" y1="122.242" x2="35.7613" y2="122.242" gradientUnits="userSpaceOnUse">
<stop offset="0.28" stop-color="#BFC4FF"/>
<stop offset="1" stop-color="#7272F7"/>
</linearGradient>
<linearGradient id="paint33_linear_504_33236" x1="129.862" y1="88.4086" x2="94.3091" y2="93.3207" gradientUnits="userSpaceOnUse">
<stop offset="0.28" stop-color="#BFC4FF"/>
<stop offset="1" stop-color="#7272F7"/>
</linearGradient>
<linearGradient id="paint34_linear_504_33236" x1="125.461" y1="58.1452" x2="92.8971" y2="148.499" gradientUnits="userSpaceOnUse">
<stop offset="0.28" stop-color="#BFC4FF"/>
<stop offset="1" stop-color="#7272F7"/>
</linearGradient>
<linearGradient id="paint35_linear_504_33236" x1="112.519" y1="42.7666" x2="97.2337" y2="67.3243" gradientUnits="userSpaceOnUse">
<stop offset="0.28" stop-color="#BFC4FF"/>
<stop offset="1" stop-color="#7272F7"/>
</linearGradient>
<linearGradient id="paint36_linear_504_33236" x1="114.262" y1="133.449" x2="113.737" y2="122.051" gradientUnits="userSpaceOnUse">
<stop offset="0.28" stop-color="#E7E8FF"/>
<stop offset="1" stop-color="#B4B5FF"/>
</linearGradient>
<linearGradient id="paint37_linear_504_33236" x1="149.089" y1="68.6359" x2="122.341" y2="139.181" gradientUnits="userSpaceOnUse">
<stop offset="0.28" stop-color="#BFC4FF"/>
<stop offset="1" stop-color="#7272F7"/>
</linearGradient>
<linearGradient id="paint38_linear_504_33236" x1="136.59" y1="83.5855" x2="119.304" y2="117.817" gradientUnits="userSpaceOnUse">
<stop offset="0.28" stop-color="#BFC4FF"/>
<stop offset="1" stop-color="#7272F7"/>
</linearGradient>
<linearGradient id="paint39_linear_504_33236" x1="137.302" y1="80.6299" x2="119.638" y2="97.3857" gradientUnits="userSpaceOnUse">
<stop offset="0.28" stop-color="#BFC4FF"/>
<stop offset="1" stop-color="#7272F7"/>
</linearGradient>
<linearGradient id="paint40_linear_504_33236" x1="129.28" y1="81.5442" x2="114.931" y2="101.806" gradientUnits="userSpaceOnUse">
<stop offset="0.28" stop-color="#BFC4FF"/>
<stop offset="1" stop-color="#7272F7"/>
</linearGradient>
<linearGradient id="paint41_linear_504_33236" x1="66.6267" y1="134.45" x2="60.2211" y2="120.784" gradientUnits="userSpaceOnUse">
<stop stop-color="#C1C1C1"/>
<stop offset="1" stop-color="#F0F0F0" stop-opacity="0"/>
</linearGradient>
<linearGradient id="paint42_linear_504_33236" x1="61.2811" y1="109.681" x2="56.1882" y2="100.06" gradientUnits="userSpaceOnUse">
<stop stop-color="#C1C1C1"/>
<stop offset="1" stop-color="#F0F0F0" stop-opacity="0"/>
</linearGradient>
</defs>
</svg>
