<svg width="160" height="135" viewBox="0 0 160 135" fill="none" xmlns="http://www.w3.org/2000/svg">
<path d="M160 81.307C160 126.212 118.587 114.991 74.5315 114.991C30.4755 114.991 0.458984 126.212 0.458984 81.307C0.458984 36.4024 36.1734 0 80.2294 0C124.285 0 160 36.4024 160 81.307Z" fill="#EAE4FF"/>
<g opacity="0.7">
<path d="M63.8283 23.3091H47.8262V131.999H63.8283V23.3091Z" fill="#D2D3FF"/>
<path d="M98.1044 23.3091H63.834V131.999H98.1044V23.3091Z" fill="url(#paint0_linear_504_33610)"/>
<path d="M93.7665 30.2585H67.2207V33.4381H93.7665V30.2585Z" fill="url(#paint1_linear_504_33610)"/>
<path d="M93.7665 40.1951H67.2207V43.3746H93.7665V40.1951Z" fill="url(#paint2_linear_504_33610)"/>
<path d="M93.7665 49.6663H67.2207V52.8458H93.7665V49.6663Z" fill="url(#paint3_linear_504_33610)"/>
<path d="M93.7665 60.0796H67.2207V63.2591H93.7665V60.0796Z" fill="url(#paint4_linear_504_33610)"/>
<path d="M93.7665 69.4226H67.2207V72.6021H93.7665V69.4226Z" fill="url(#paint5_linear_504_33610)"/>
<path d="M57.9965 29.2241H53.7266V100.072H57.9965V29.2241Z" fill="url(#paint6_linear_504_33610)"/>
<path d="M57.9974 39.9019H54.0176V40.6164H57.9974V39.9019Z" fill="#E9EAFF"/>
<path d="M57.9974 54.2148H54.0176V54.9293H57.9974V54.2148Z" fill="#E9EAFF"/>
<path d="M57.9974 68.5298H54.0176V69.2443H57.9974V68.5298Z" fill="#E9EAFF"/>
<path d="M57.9974 82.8433H54.0176V83.5578H57.9974V82.8433Z" fill="#E9EAFF"/>
<path d="M54.5424 29.2241H53.4922V100.072H54.5424V29.2241Z" fill="#9792FF"/>
<path d="M47.8334 33.8169H25.2812V131.993H47.8334V33.8169Z" fill="url(#paint7_linear_504_33610)"/>
<path d="M29.2541 33.8169H25.2812V41.7809H29.2541V33.8169Z" fill="url(#paint8_linear_504_33610)"/>
<path d="M29.2541 41.7803H25.2812V53.6156H29.2541V41.7803Z" fill="#D2D3FF"/>
<path d="M29.2541 53.6229H25.2812V69.8581H29.2541V53.6229Z" fill="#D2D3FF"/>
<path d="M29.2541 69.851H25.2812V91.186H29.2541V69.851Z" fill="url(#paint9_linear_504_33610)"/>
<path d="M29.2541 91.1854H25.2812V100.071H29.2541V91.1854Z" fill="url(#paint10_linear_504_33610)"/>
<path d="M33.3368 33.8169H32.7012V100.072H33.3368V33.8169Z" fill="url(#paint11_linear_504_33610)"/>
<path d="M159.999 98.2005C159.992 96.1506 159.329 94.7506 158.362 93.3078C157.906 92.6293 157.374 91.9864 157.097 91.2079C156.883 90.6079 156.842 89.9508 156.835 89.3079C156.814 87.3651 157.125 85.4295 157 83.4938C156.883 81.5582 156.254 79.5297 154.762 78.3511C153.953 77.7083 152.924 77.4369 151.908 77.4726C151.908 77.4726 151.888 77.4726 151.874 77.4726C151.86 77.4726 151.853 77.4726 151.839 77.4726C150.824 77.4369 149.794 77.7083 148.986 78.3511C147.5 79.5297 146.864 81.5582 146.747 83.4938C146.63 85.4295 146.934 87.3651 146.913 89.3079C146.913 89.9508 146.864 90.6008 146.65 91.2079C146.374 91.9864 145.842 92.6293 145.386 93.3078C144.425 94.7506 143.762 96.1506 143.748 98.2005C143.707 106.493 148.136 108.622 151.832 108.615C151.832 108.615 151.853 108.615 151.867 108.615C151.881 108.615 151.888 108.615 151.901 108.615C155.598 108.615 160.027 106.493 159.985 98.2005H159.999Z" fill="#9792FF"/>
<path d="M151.57 87.8154H151.225V132H151.57V87.8154Z" fill="url(#paint12_linear_504_33610)"/>
<path d="M32.2804 78.4583H15.5391V131.999H32.2804V78.4583Z" fill="url(#paint13_linear_504_33610)"/>
<path d="M32.2732 78.4583H24.0234V131.999H32.2732V78.4583Z" fill="url(#paint14_linear_504_33610)"/>
<path d="M15.5469 78.4583H7V131.999H15.5469V78.4583Z" fill="#73A9B5"/>
<path d="M15.5469 78.4583H7V131.999H15.5469V78.4583Z" fill="url(#paint15_linear_504_33610)"/>
<path d="M22.9055 82.2012H18.5664V88.4153H22.9055V82.2012Z" fill="url(#paint16_linear_504_33610)"/>
<path d="M20.9769 82.1863H20.4863V88.4361H20.9769V82.1863Z" fill="#9792FF"/>
<path d="M23.1535 93.8301H18.8145V100.044H23.1535V93.8301Z" fill="url(#paint17_linear_504_33610)"/>
<path d="M21.2249 93.8225H20.7344V100.072H21.2249V93.8225Z" fill="#9792FF"/>
<path d="M23.3957 105.464H19.0566V111.678H23.3957V105.464Z" fill="url(#paint18_linear_504_33610)"/>
<path d="M21.4749 105.45H20.9844V111.7H21.4749V105.45Z" fill="#9792FF"/>
<path d="M23.6438 117.092H19.3047V123.306H23.6438V117.092Z" fill="url(#paint19_linear_504_33610)"/>
<path d="M21.7171 117.085H21.2266V123.335H21.7171V117.085Z" fill="#9792FF"/>
<path d="M40.109 100.072H22.2207V131.992H40.109V100.072Z" fill="#D2D3FF"/>
<path d="M40.109 100.072H22.2207V102.258H40.109V100.072Z" fill="url(#paint20_linear_504_33610)"/>
<path d="M74.7805 100.072H40.1094V131.992H74.7805V100.072Z" fill="url(#paint21_linear_504_33610)"/>
<path d="M74.7805 100.072H40.1094V102.258H74.7805V100.072Z" fill="url(#paint22_linear_504_33610)"/>
<path d="M68.54 117.849H45.5664V131.999H68.54V117.849Z" fill="#D2D3FF"/>
<path d="M50.7635 117.849H50.418V131.999H50.7635V117.849Z" fill="url(#paint23_linear_504_33610)"/>
<path d="M55.3025 117.849H54.957V131.999H55.3025V117.849Z" fill="url(#paint24_linear_504_33610)"/>
<path d="M59.4959 117.849H59.1504V131.992H59.4959V117.849Z" fill="url(#paint25_linear_504_33610)"/>
<path d="M63.8357 117.849H63.4902V131.992H63.8357V117.849Z" fill="url(#paint26_linear_504_33610)"/>
<path d="M68.54 114.992H45.5664V117.079H68.54V114.992Z" fill="#D2D3FF"/>
<path d="M29.63 120.55H26.5898V131.528H29.63V120.55Z" fill="url(#paint27_linear_504_33610)"/>
<path d="M29.3163 121.243H26.5664V120.55H29.6273V131.535H29.3163V121.243Z" fill="url(#paint28_linear_504_33610)"/>
<path d="M29.6549 122.057H26.5664V122.428H29.6549V122.057Z" fill="url(#paint29_linear_504_33610)"/>
<path d="M35.7432 120.55H32.7031V131.528H35.7432V120.55Z" fill="url(#paint30_linear_504_33610)"/>
<path d="M35.4296 121.243H32.6797V120.55H35.7405V131.535H35.4296V121.243Z" fill="url(#paint31_linear_504_33610)"/>
<path d="M35.7682 122.049H32.6797V122.42H35.7682V122.049Z" fill="url(#paint32_linear_504_33610)"/>
<path d="M75.4149 97.3855H21.5703V100.043H75.4149V97.3855Z" fill="#D2D3FF"/>
<path d="M107.261 52.8525H98.0996V132H107.261V52.8525Z" fill="url(#paint33_linear_504_33610)"/>
<path d="M120.535 52.8525H107.262V132H120.535V52.8525Z" fill="url(#paint34_linear_504_33610)"/>
<path d="M103.434 57.059H98.0996V68.8087H103.434V57.059Z" fill="url(#paint35_linear_504_33610)"/>
<g opacity="0.55">
<path d="M103.433 68.8086H102.742V73.2156H103.433V68.8086Z" fill="#E9EAFF"/>
<path d="M103.433 78.3155H102.742V82.7225H103.433V78.3155Z" fill="#E9EAFF"/>
<path d="M103.433 87.822H102.742V92.229H103.433V87.822Z" fill="#E9EAFF"/>
<path d="M103.433 97.3348H102.742V101.742H103.433V97.3348Z" fill="#E9EAFF"/>
<path d="M103.433 106.843H102.742V111.25H103.433V106.843Z" fill="#E9EAFF"/>
<path d="M103.433 116.349H102.742V120.757H103.433V116.349Z" fill="#E9EAFF"/>
<path d="M103.433 125.856H102.742V130.263H103.433V125.856Z" fill="#E9EAFF"/>
</g>
<path d="M113.964 118.749C112.769 118.749 111.795 119.742 111.795 120.971V131.992H116.134V120.971C116.134 119.742 115.167 118.749 113.964 118.749Z" fill="url(#paint36_linear_504_33610)"/>
<path d="M113.963 118.749V131.999" stroke="#9792FF" stroke-width="1.67677"/>
<path d="M116.194 122.356H111.834" stroke="#9792FF" stroke-width="1.67677"/>
<path d="M146.173 95.3994H120.035V131.991H146.173V95.3994Z" fill="url(#paint37_linear_504_33610)"/>
<path d="M124.692 95.3994H120.035V131.991H124.692V95.3994Z" fill="url(#paint38_linear_504_33610)"/>
<path d="M130.33 99.2288H127.338V103.266H130.33V99.2288Z" fill="#E9EAFF"/>
<path d="M136.908 99.2288H133.916V103.266H136.908V99.2288Z" fill="#E9EAFF"/>
<path d="M142.718 99.2288H139.727V103.266H142.718V99.2288Z" fill="#E9EAFF"/>
<path d="M132.41 87.8154H120.533V95.4081H132.41V87.8154Z" fill="url(#paint39_linear_504_33610)"/>
<path d="M124.686 87.8154H120.533V95.4081H124.686V87.8154Z" fill="url(#paint40_linear_504_33610)"/>
<path d="M128.748 91.3723H127.256V95.4092H128.748V91.3723Z" fill="#E9EAFF"/>
<path d="M130.393 91.3723H128.9V95.4092H130.393V91.3723Z" fill="#E9EAFF"/>
</g>
<path d="M88.7062 86.6886C89.1704 85.5195 90.3501 84.6913 91.5495 84.6913H115.27C116.692 84.6913 117.652 85.8442 117.414 87.2662L109.919 132.066C109.681 133.488 108.335 134.64 106.913 134.64H47.4362C46.0142 134.64 45.0539 133.488 45.2921 132.066L51.673 93.9294C51.9113 92.5074 53.2566 91.3545 54.6787 91.3545H82.0658C84.8675 91.3545 87.6219 89.4193 88.707 86.6894L88.7062 86.6886Z" fill="#FFAB00"/>
<path d="M99.8911 77.4592H50.7579C49.8922 77.4592 49.1914 76.7576 49.1914 75.8919L49.1987 58.1998C49.1987 57.3342 49.9012 56.6325 50.7668 56.6325H99.9009C100.767 56.6325 101.467 57.3342 101.467 58.1998L101.46 75.8919C101.46 76.7576 100.758 77.4592 99.892 77.4592H99.8911Z" fill="url(#paint41_linear_504_33610)"/>
<path d="M99.2591 76.8206H50.1251C49.2594 76.8206 48.5586 76.1189 48.5586 75.2533L48.5659 57.5612C48.5659 56.6955 49.2684 55.9939 50.134 55.9939H99.2681C100.134 55.9939 100.835 56.6955 100.835 57.5612L100.827 75.2533C100.827 76.1189 100.125 76.8206 99.2591 76.8206Z" fill="url(#paint42_linear_504_33610)"/>
<path d="M64.8026 73.8913H52.5466C51.6092 73.8913 50.8496 73.1309 50.8496 72.1935L50.8545 59.9375C50.8545 59.0001 51.6149 58.2397 52.5531 58.2397H64.8091C65.7466 58.2397 66.5061 59.0001 66.5061 59.9375L66.5012 72.1935C66.5012 73.1309 65.7409 73.8913 64.8026 73.8913Z" fill="#F8F9FF"/>
<path d="M55.4395 63.8784L55.3457 68.7353H58.9567L58.9584 63.8784H55.4387H55.4395Z" fill="url(#paint43_linear_504_33610)"/>
<path d="M57.8379 66.6253H57.075L57.0742 68.6593H57.8371L57.8379 66.6253Z" fill="url(#paint44_linear_504_33610)"/>
<path d="M57.4414 66.6232V68.6572" stroke="url(#paint45_linear_504_33610)" stroke-width="0.0998196"/>
<path d="M57.6368 60.9797L61.0953 61.0303L58.9585 63.8785H55.0938L57.6376 60.9797H57.6368Z" fill="url(#paint46_linear_504_33610)"/>
<path d="M61.094 61.0311L63.5848 63.7773L63.6354 63.8279L63.6321 71.8634H58.9531L58.9564 63.8793L61.0931 61.0311H61.094Z" fill="url(#paint47_linear_504_33610)"/>
<path d="M58.9563 68.6597H53.7184L53.7168 71.8636H58.9547L58.9563 68.6597Z" fill="url(#paint48_linear_504_33610)"/>
<path d="M59.7734 60.4716V61.3364L59.0098 62.0992V60.4716H59.7734Z" fill="url(#paint49_linear_504_33610)"/>
<path d="M59.0104 60.4716H58.5527V62.0992H59.0104V60.4716Z" fill="url(#paint50_linear_504_33610)"/>
<path d="M60.4102 68.2526H62.2157L63.0748 69.4984H61.3101L60.4102 68.2526Z" fill="url(#paint51_linear_504_33610)"/>
<path d="M61.3092 69.4984V71.8636H60.4338L60.4102 68.2526L61.3101 69.4984H61.3092Z" fill="url(#paint52_linear_504_33610)"/>
<path d="M58.9906 68.1208H54.0293V68.6316" stroke="#F1F2F7" stroke-width="0.0998196" stroke-miterlimit="10"/>
<path d="M63.0761 69.4985H61.3114L61.3105 71.8629H63.0753L63.0761 69.4985Z" fill="url(#paint53_linear_504_33610)"/>
<path d="M57.7461 68.0999V68.6596" stroke="#F1F2F7" stroke-width="0.0998196" stroke-miterlimit="10"/>
<path d="M58.5605 68.0999V68.6596" stroke="#F1F2F7" stroke-width="0.0998196" stroke-miterlimit="10"/>
<path d="M56.8301 68.0999V68.6596" stroke="#F1F2F7" stroke-width="0.0998196" stroke-miterlimit="10"/>
<path d="M55.916 68.0999V68.6596" stroke="#F1F2F7" stroke-width="0.0998196" stroke-miterlimit="10"/>
<path d="M55 68.0999V68.6596" stroke="#F1F2F7" stroke-width="0.0998196" stroke-miterlimit="10"/>
<path d="M62.0101 63.9295H60.4844V65.0995H62.0101V63.9295Z" fill="url(#paint54_linear_504_33610)"/>
<path d="M62.0456 63.9275H61.791V65.0974H62.0456V63.9275Z" fill="url(#paint55_linear_504_33610)"/>
<path d="M62.0081 65.3029H60.4824V66.1677H62.0081V65.3029Z" fill="url(#paint56_linear_504_33610)"/>
<path d="M61.2559 65.3005V66.1654" stroke="white" stroke-width="0.0998196"/>
<path d="M60.0274 60.2685H58.4512V60.523H60.0274V60.2685Z" fill="url(#paint57_linear_504_33610)"/>
<path d="M62.0456 65.3005H61.791V66.1654H62.0456V65.3005Z" fill="url(#paint58_linear_504_33610)"/>
<path d="M61.2559 63.9275V65.0974" stroke="white" stroke-width="0.0998196"/>
<path d="M60.4941 64.5123H62.0451" stroke="white" stroke-width="0.0998196"/>
<path d="M60.4922 65.7328H61.9926" stroke="white" stroke-width="0.0998196"/>
<path d="M55.9386 70.488H55.1758V71.8611H55.9386V70.488Z" fill="url(#paint59_linear_504_33610)"/>
<path d="M55.5332 70.488V71.8611" stroke="white" stroke-width="0.0998196"/>
<path d="M61.2336 61.1812L61.1063 61.0286L58.9688 63.9021V64.182L61.2328 61.1812H61.2336Z" fill="url(#paint60_linear_504_33610)"/>
<path d="M82.411 61.7651H69.1197C68.6808 61.7651 68.3242 61.4085 68.3242 60.9696V59.0352C68.325 58.5962 68.6816 58.2397 69.1205 58.2397H82.4118C82.8508 58.2397 83.2073 58.5962 83.2073 59.0352V60.9696C83.2065 61.4085 82.85 61.7651 82.411 61.7651Z" fill="#F8F9FF"/>
<path d="M98.036 74.0139H84.7447C84.3058 74.0139 83.9492 73.6574 83.9492 73.2184V71.284C83.95 70.8451 84.3066 70.4885 84.7455 70.4885H98.0368C98.4758 70.4885 98.8323 70.8451 98.8323 71.284V73.2184C98.8315 73.6574 98.475 74.0139 98.036 74.0139Z" fill="url(#paint61_linear_504_33610)"/>
<path d="M98.3076 61.7651H96.4857C96.015 61.7651 95.634 61.384 95.6348 60.9133V59.0915C95.6356 58.6207 96.0174 58.2397 96.4874 58.2397H98.3092C98.7799 58.2397 99.161 58.6207 99.1601 59.0915V60.9133C99.1593 61.384 98.7775 61.7651 98.3076 61.7651Z" fill="#F8F9FF"/>
<path d="M90.9741 65.7607H69.0655C68.6551 65.7607 68.3223 65.4278 68.3223 65.0174V63.5186C68.3223 63.1083 68.656 62.7754 69.0663 62.7754H90.9749C91.3853 62.7754 91.7181 63.1083 91.7181 63.5186V65.0174C91.7181 65.4278 91.3844 65.7607 90.9741 65.7607Z" fill="#F8F9FF"/>
<path d="M96.717 68.5282H68.7955C68.5344 68.5282 68.3223 68.316 68.3223 68.055V67.2293C68.3223 66.9682 68.5344 66.7561 68.7963 66.7561H96.7178C96.9789 66.7561 97.191 66.9682 97.191 67.2293V68.055C97.191 68.316 96.9789 68.5282 96.717 68.5282Z" fill="#F8F9FF"/>
<path d="M99.8814 101.446H50.7481C49.8825 101.446 49.1816 100.744 49.1816 99.8785L49.189 82.1864C49.189 81.3207 49.8914 80.6191 50.7571 80.6191H99.8912C100.757 80.6191 101.458 81.3207 101.458 82.1864L101.45 99.8785C101.45 100.744 100.748 101.446 99.8822 101.446H99.8814Z" fill="url(#paint62_linear_504_33610)"/>
<path d="M99.2486 100.807H50.1153C49.2497 100.807 48.5488 100.106 48.5488 99.2399L48.5562 81.5478C48.5562 80.6821 49.2586 79.9805 50.1243 79.9805H99.2584C100.124 79.9805 100.825 80.6821 100.825 81.5478L100.817 99.2399C100.817 100.106 100.115 100.807 99.2494 100.807H99.2486Z" fill="url(#paint63_linear_504_33610)"/>
<path d="M64.7928 97.8773H52.5369C51.5994 97.8773 50.8398 97.117 50.8398 96.1795L50.8447 83.9235C50.8447 82.9861 51.6051 82.2257 52.5434 82.2257H64.7994C65.7368 82.2257 66.4964 82.9861 66.4964 83.9235L66.4915 96.1795C66.4915 97.117 65.7311 97.8773 64.7928 97.8773Z" fill="#F8F9FF"/>
<path d="M60.2891 83.381H58.3065L58.3008 96.3746H60.2833L60.2891 83.381Z" fill="#D1D2FF"/>
<path d="M64.5347 83.381H60.2889L60.2832 96.3746H64.529L64.5347 83.381Z" fill="url(#paint64_linear_504_33610)"/>
<path d="M63.9978 84.2114H60.709V84.5916H63.9978V84.2114Z" fill="url(#paint65_linear_504_33610)"/>
<path d="M63.9978 85.3994H60.709V85.7795H63.9978V85.3994Z" fill="url(#paint66_linear_504_33610)"/>
<path d="M63.9978 86.532H60.709V86.9122H63.9978V86.532Z" fill="url(#paint67_linear_504_33610)"/>
<path d="M63.9958 87.7769H60.707V88.1571H63.9958V87.7769Z" fill="url(#paint68_linear_504_33610)"/>
<path d="M63.9958 88.8937H60.707V89.2739H63.9958V88.8937Z" fill="url(#paint69_linear_504_33610)"/>
<path d="M59.5671 84.0884H59.0384L59.0352 92.5579H59.5638L59.5671 84.0884Z" fill="url(#paint70_linear_504_33610)"/>
<path d="M59.5651 85.3643H59.0723V85.45H59.5651V85.3643Z" fill="#E8E9FF"/>
<path d="M59.5651 87.0759H59.0723V87.1615H59.5651V87.0759Z" fill="#E8E9FF"/>
<path d="M59.5651 88.7867H59.0723V88.8724H59.5651V88.7867Z" fill="#E8E9FF"/>
<path d="M59.5631 90.4977H59.0703V90.5833H59.5631V90.4977Z" fill="#E8E9FF"/>
<path d="M59.1388 84.0884H59.0091L59.0059 92.5579H59.1356L59.1388 84.0884Z" fill="#9791FF"/>
<path d="M58.3071 84.6374H55.5127L55.5078 96.3737H58.3022L58.3071 84.6374Z" fill="url(#paint71_linear_504_33610)"/>
<path d="M56.0056 84.6374H55.5137V85.5895H56.0056V84.6374Z" fill="url(#paint72_linear_504_33610)"/>
<path d="M56.0056 85.5895H55.5137V87.0043H56.0056V85.5895Z" fill="#D1D2FF"/>
<path d="M56.0037 87.0051H55.5117V88.9461H56.0037V87.0051Z" fill="#D1D2FF"/>
<path d="M56.0045 88.9451H55.5125L55.5117 91.4955H56.0037L56.0045 88.9451Z" fill="url(#paint73_linear_504_33610)"/>
<path d="M56.0017 91.4957H55.5098V92.5579H56.0017V91.4957Z" fill="url(#paint74_linear_504_33610)"/>
<path d="M56.5101 84.6374H56.431L56.4277 92.5578H56.5069L56.5101 84.6374Z" fill="url(#paint75_linear_504_33610)"/>
<path d="M55.51 89.9741H53.436L53.4336 96.3746H55.5075L55.51 89.9741Z" fill="url(#paint76_linear_504_33610)"/>
<path d="M55.5091 89.9741H54.4868L54.4844 96.3746H55.5067L55.5091 89.9741Z" fill="url(#paint77_linear_504_33610)"/>
<path d="M53.4364 89.9741H52.3774L52.375 96.3746H53.434L53.4364 89.9741Z" fill="#61AAB6"/>
<path d="M53.4364 89.9741H52.3774L52.375 96.3746H53.434L53.4364 89.9741Z" fill="url(#paint78_linear_504_33610)"/>
<path d="M54.3482 90.4212H53.8105V91.1645H54.3482V90.4212Z" fill="url(#paint79_linear_504_33610)"/>
<path d="M54.1092 90.4194H54.0488V91.1668H54.1092V90.4194Z" fill="#9791FF"/>
<path d="M54.3795 91.811H53.8418V92.5543H54.3795V91.811Z" fill="url(#paint80_linear_504_33610)"/>
<path d="M54.1385 91.8105H54.0781V92.5578H54.1385V91.8105Z" fill="#9791FF"/>
<path d="M54.4088 93.2024H53.8711V93.9448H54.4088V93.2024Z" fill="url(#paint81_linear_504_33610)"/>
<path d="M54.1697 93.2009H54.1094V93.9483H54.1697V93.2009Z" fill="#9791FF"/>
<path d="M54.438 94.5925H53.9004V95.3349H54.438V94.5925Z" fill="url(#paint82_linear_504_33610)"/>
<path d="M54.199 94.591H54.1387V95.3383H54.199V94.591Z" fill="#9791FF"/>
<path d="M57.3464 92.5581H55.1305L55.1289 96.3739H57.3448L57.3464 92.5581Z" fill="#D1D2FF"/>
<path d="M57.3468 92.5581H55.1309V92.8192H57.3468V92.5581Z" fill="url(#paint83_linear_504_33610)"/>
<path d="M61.6409 92.5581H57.3454L57.3438 96.3739H61.6393L61.6409 92.5581Z" fill="url(#paint84_linear_504_33610)"/>
<path d="M61.6413 92.5581H57.3457V92.8192H61.6413V92.5581Z" fill="url(#paint85_linear_504_33610)"/>
<path d="M60.8681 94.6821H58.0215V96.3734H60.8681V94.6821Z" fill="#D1D2FF"/>
<path d="M58.6655 94.6821H58.623V96.3734H58.6655V94.6821Z" fill="url(#paint86_linear_504_33610)"/>
<path d="M59.226 94.6821H59.1836V96.3734H59.226V94.6821Z" fill="url(#paint87_linear_504_33610)"/>
<path d="M59.7475 94.6821H59.7051V96.3726H59.7475V94.6821Z" fill="url(#paint88_linear_504_33610)"/>
<path d="M60.2846 94.6821H60.2422V96.3726H60.2846V94.6821Z" fill="url(#paint89_linear_504_33610)"/>
<path d="M60.8681 94.3413H58.0215V94.591H60.8681V94.3413Z" fill="#D1D2FF"/>
<path d="M56.0469 95.0056H55.6699V96.3183H56.0469V95.0056Z" fill="url(#paint90_linear_504_33610)"/>
<path d="M56.009 95.0888H55.668V95.0056H56.0473V96.3192H56.009V95.0888Z" fill="url(#paint91_linear_504_33610)"/>
<path d="M56.0506 95.1857H55.668V95.2297H56.0506V95.1857Z" fill="url(#paint92_linear_504_33610)"/>
<path d="M56.8047 95.0056H56.4277V96.3183H56.8047V95.0056Z" fill="url(#paint93_linear_504_33610)"/>
<path d="M56.7649 95.0888H56.4238V95.0056H56.8032V96.3192H56.7649V95.0888Z" fill="url(#paint94_linear_504_33610)"/>
<path d="M56.8065 95.1851H56.4238V95.2292H56.8065V95.1851Z" fill="url(#paint95_linear_504_33610)"/>
<path d="M61.7202 92.2364H55.0488V92.5538H61.7202V92.2364Z" fill="#D1D2FF"/>
<path d="M75.8629 85.7511H69.1099C68.671 85.7511 68.3145 85.3945 68.3145 84.9556V83.0212C68.3153 82.5822 68.6718 82.2257 69.1107 82.2257H75.8637C76.3026 82.2257 76.6592 82.5822 76.6592 83.0212V84.9556C76.6583 85.3945 76.3018 85.7511 75.8629 85.7511Z" fill="#F8F9FF"/>
<path d="M98.0262 97.9999H84.7349C84.296 97.9999 83.9395 97.6433 83.9395 97.2044V95.27C83.9403 94.831 84.2968 94.4745 84.7357 94.4745H98.0271C98.466 94.4745 98.8225 94.831 98.8225 95.27V97.2044C98.8217 97.6433 98.4652 97.9999 98.0262 97.9999Z" fill="url(#paint96_linear_504_33610)"/>
<path d="M98.2978 85.7511H96.476C96.0052 85.7511 95.6242 85.3701 95.625 84.8993V83.0775C95.6258 82.6067 96.0076 82.2257 96.4776 82.2257H98.2994C98.7702 82.2257 99.1512 82.6067 99.1504 83.0775V84.8993C99.1496 85.3701 98.7677 85.7511 98.2978 85.7511Z" fill="#F8F9FF"/>
<path d="M85.7338 89.7472H69.0558C68.6454 89.7472 68.3125 89.4144 68.3125 89.004V87.5052C68.3125 87.0948 68.6462 86.762 69.0566 86.762H85.7346C86.145 86.762 86.4778 87.0948 86.4778 87.5052V89.004C86.4778 89.4144 86.1441 89.7472 85.7338 89.7472Z" fill="#F8F9FF"/>
<path d="M96.7072 92.5147H68.7857C68.5246 92.5147 68.3125 92.3026 68.3125 92.0415V91.2159C68.3125 90.9548 68.5246 90.7427 68.7865 90.7427H96.708C96.9691 90.7427 97.1812 90.9548 97.1812 91.2159V92.0415C97.1812 92.3026 96.9691 92.5147 96.7072 92.5147Z" fill="#F8F9FF"/>
<path d="M99.8705 125.434H50.7364C49.8708 125.434 49.1699 124.732 49.1699 123.866L49.1773 106.174C49.1773 105.308 49.8797 104.607 50.7454 104.607H99.8794C100.745 104.607 101.446 105.308 101.446 106.174L101.439 123.866C101.439 124.732 100.736 125.434 99.8705 125.434Z" fill="url(#paint97_linear_504_33610)"/>
<path d="M99.2396 124.795H50.1055C49.2399 124.795 48.5391 124.093 48.5391 123.227L48.5464 105.535C48.5464 104.67 49.2489 103.968 50.1145 103.968H99.2486C100.114 103.968 100.815 104.67 100.815 105.535L100.808 123.227C100.808 124.093 100.105 124.795 99.2396 124.795Z" fill="url(#paint98_linear_504_33610)"/>
<path d="M64.7831 121.865H52.5271C51.5897 121.865 50.8301 121.104 50.8301 120.167L50.835 107.911C50.835 106.974 51.5954 106.213 52.5336 106.213H64.7896C65.727 106.213 66.4866 106.974 66.4866 107.911L66.4817 120.167C66.4817 121.104 65.7213 121.865 64.7831 121.865Z" fill="#F8F9FF"/>
<path d="M57.1774 112.43L57.1758 117.287H60.7868L60.6971 112.43H57.1774Z" fill="url(#paint99_linear_504_33610)"/>
<path d="M58.2949 117.21H59.0578L59.0586 115.176H58.2957L58.2949 117.21Z" fill="url(#paint100_linear_504_33610)"/>
<path d="M58.6914 117.209V115.175" stroke="url(#paint101_linear_504_33610)" stroke-width="0.0998196"/>
<path d="M61.0448 112.43H57.1801L55.0449 109.582L58.5034 109.531L61.0448 112.43Z" fill="url(#paint102_linear_504_33610)"/>
<path d="M57.1784 112.43L57.1751 120.414H52.4961L52.4994 112.379L52.5499 112.328L55.0432 109.582L57.1784 112.43Z" fill="url(#paint103_linear_504_33610)"/>
<path d="M57.1758 120.415H62.4137L62.4153 117.211H57.1774L57.1758 120.415Z" fill="url(#paint104_linear_504_33610)"/>
<path d="M57.13 109.023V110.651L56.3672 109.888V109.023H57.13Z" fill="url(#paint105_linear_504_33610)"/>
<path d="M57.1289 110.65H57.5866V109.022H57.1289V110.65Z" fill="url(#paint106_linear_504_33610)"/>
<path d="M54.8214 118.05H53.0566L53.9166 116.804H55.7221L54.8214 118.05Z" fill="url(#paint107_linear_504_33610)"/>
<path d="M55.7218 116.804L55.6949 120.415H54.8203L54.8211 118.05L55.7218 116.804Z" fill="url(#paint108_linear_504_33610)"/>
<path d="M62.1039 117.183V116.672H57.1426" stroke="#F1F2F7" stroke-width="0.0998196" stroke-miterlimit="10"/>
<path d="M53.0566 120.415H54.8214L54.8222 118.05H53.0575L53.0566 120.415Z" fill="url(#paint109_linear_504_33610)"/>
<path d="M58.3867 117.21V116.65" stroke="#F1F2F7" stroke-width="0.0998196" stroke-miterlimit="10"/>
<path d="M57.5723 117.21V116.65" stroke="#F1F2F7" stroke-width="0.0998196" stroke-miterlimit="10"/>
<path d="M59.3027 117.21V116.65" stroke="#F1F2F7" stroke-width="0.0998196" stroke-miterlimit="10"/>
<path d="M60.2168 117.21V116.65" stroke="#F1F2F7" stroke-width="0.0998196" stroke-miterlimit="10"/>
<path d="M61.1328 117.21V116.65" stroke="#F1F2F7" stroke-width="0.0998196" stroke-miterlimit="10"/>
<path d="M54.127 113.651H55.6526V112.481H54.127V113.651Z" fill="url(#paint110_linear_504_33610)"/>
<path d="M54.0898 113.649H54.3444V112.479H54.0898V113.649Z" fill="url(#paint111_linear_504_33610)"/>
<path d="M54.125 114.719H55.6507V113.854H54.125V114.719Z" fill="url(#paint112_linear_504_33610)"/>
<path d="M54.877 114.717V113.852" stroke="white" stroke-width="0.0998196"/>
<path d="M56.1113 109.074H57.6876V108.819H56.1113V109.074Z" fill="url(#paint113_linear_504_33610)"/>
<path d="M54.0898 114.717H54.3444V113.852H54.0898V114.717Z" fill="url(#paint114_linear_504_33610)"/>
<path d="M54.8789 113.649V112.479" stroke="white" stroke-width="0.0998196"/>
<path d="M54.0898 113.064H55.6408" stroke="white" stroke-width="0.0998196"/>
<path d="M54.1406 114.285H55.641" stroke="white" stroke-width="0.0998196"/>
<path d="M60.1914 120.412H60.9542V119.039H60.1914V120.412Z" fill="url(#paint115_linear_504_33610)"/>
<path d="M60.5977 120.412V119.039" stroke="white" stroke-width="0.0998196"/>
<path d="M57.1678 112.734V112.454L55.0335 109.58L54.9062 109.733L57.1678 112.734Z" fill="url(#paint116_linear_504_33610)"/>
<path d="M62.6895 120.361H64.9054L64.907 116.545H62.6911L62.6895 120.361Z" fill="#D1D2FF"/>
<path d="M62.6895 116.806H64.9054V116.545H62.6895V116.806Z" fill="url(#paint117_linear_504_33610)"/>
<path d="M58.3926 120.361H62.6881L62.6898 116.545H58.3942L58.3926 120.361Z" fill="url(#paint118_linear_504_33610)"/>
<path d="M58.3945 116.806H62.6901V116.545H58.3945V116.806Z" fill="url(#paint119_linear_504_33610)"/>
<path d="M59.166 120.362H62.0126V118.671H59.166V120.362Z" fill="#D1D2FF"/>
<path d="M61.3691 120.362H61.4116V118.671H61.3691V120.362Z" fill="url(#paint120_linear_504_33610)"/>
<path d="M60.8066 120.362H60.8491V118.671H60.8066V120.362Z" fill="url(#paint121_linear_504_33610)"/>
<path d="M60.2871 120.361H60.3295V118.671H60.2871V120.361Z" fill="url(#paint122_linear_504_33610)"/>
<path d="M59.75 120.361H59.7924V118.671H59.75V120.361Z" fill="url(#paint123_linear_504_33610)"/>
<path d="M59.168 118.578H62.0145V118.328H59.168V118.578Z" fill="#D1D2FF"/>
<path d="M63.9863 120.305H64.3633V118.992H63.9863V120.305Z" fill="url(#paint124_linear_504_33610)"/>
<path d="M64.0247 120.306H63.9863V118.993H64.3657V119.076H64.0247V120.306Z" fill="url(#paint125_linear_504_33610)"/>
<path d="M63.9844 119.217H64.367V119.173H63.9844V119.217Z" fill="url(#paint126_linear_504_33610)"/>
<path d="M63.2305 120.305H63.6074V118.992H63.2305V120.305Z" fill="url(#paint127_linear_504_33610)"/>
<path d="M63.2688 120.306H63.2305V118.993H63.6098V119.076H63.2688V120.306Z" fill="url(#paint128_linear_504_33610)"/>
<path d="M63.2266 119.216H63.6092V119.172H63.2266V119.216Z" fill="url(#paint129_linear_504_33610)"/>
<path d="M58.3164 116.541H64.9878V116.224H58.3164V116.541Z" fill="#D1D2FF"/>
<path d="M78.4668 109.739H69.0982C68.6593 109.739 68.3027 109.382 68.3027 108.943V107.009C68.3036 106.57 68.6601 106.213 69.099 106.213H78.4676C78.9066 106.213 79.2631 106.57 79.2631 107.009V108.943C79.2623 109.382 78.9058 109.739 78.4668 109.739Z" fill="#F8F9FF"/>
<path d="M98.0165 121.987H84.7252C84.2862 121.987 83.9297 121.631 83.9297 121.192V119.257C83.9305 118.818 84.287 118.462 84.726 118.462H98.0173C98.4562 118.462 98.8128 118.818 98.8128 119.257V121.192C98.812 121.631 98.4554 121.987 98.0165 121.987Z" fill="url(#paint130_linear_504_33610)"/>
<path d="M98.29 109.739H96.4681C95.9974 109.739 95.6164 109.357 95.6172 108.887V107.065C95.618 106.594 95.9998 106.213 96.4698 106.213H98.2916C98.7624 106.213 99.1434 106.594 99.1426 107.065V108.887C99.1417 109.357 98.7599 109.739 98.29 109.739Z" fill="#F8F9FF"/>
<path d="M81.8013 113.733H69.046C68.6356 113.733 68.3027 113.401 68.3027 112.99V111.491C68.3027 111.081 68.6364 110.748 69.0468 110.748H81.8021C82.2125 110.748 82.5454 111.081 82.5454 111.491V112.99C82.5454 113.401 82.2117 113.733 81.8013 113.733Z" fill="#F8F9FF"/>
<path d="M92.7728 116.502H68.774C68.5129 116.502 68.3008 116.29 68.3008 116.029V115.203C68.3008 114.942 68.5129 114.73 68.7748 114.73H92.7736C93.0347 114.73 93.2468 114.942 93.2468 115.203V116.029C93.2468 116.29 93.0347 116.502 92.7728 116.502Z" fill="#F8F9FF"/>
<path d="M77.1661 96.0409C77.3277 95.0325 78.292 94.3177 79.4913 94.3177H103.212C104.634 94.3177 105.893 95.3123 106.024 96.5394L109.142 132.42C109.274 133.647 108.227 134.641 106.805 134.641H47.3273C45.9053 134.641 44.6464 133.647 44.515 132.42L42.0111 102.288C41.8798 101.061 42.9265 100.066 44.3486 100.066H71.7357C74.5374 100.066 76.79 98.3971 77.1661 96.0409Z" fill="#F6CD46"/>
<path opacity="0.25" d="M117.342 51.3615H122" stroke="#E5E5FF" stroke-width="0.804997" stroke-linecap="round" stroke-linejoin="round"/>
<path d="M118.367 62.884V67.4814C118.367 67.6143 118.475 67.7221 118.608 67.7221H118.609C118.742 67.7221 118.849 67.6143 118.849 67.4814V62.884C118.849 62.7511 118.742 62.6433 118.609 62.6433H118.608C118.475 62.6433 118.367 62.7511 118.367 62.884Z" fill="url(#paint131_linear_504_33610)"/>
<path d="M105.446 65.2798C106.827 66.3266 108.162 67.4215 109.483 68.5311C110.803 69.6423 112.104 70.7723 113.391 71.9177C114.676 73.0665 115.952 74.2234 117.21 75.3991C117.843 75.9824 118.464 76.5788 119.091 77.1687C119.41 77.4575 119.701 77.7773 119.931 78.16C120.046 78.3501 120.148 78.5565 120.232 78.78C120.314 79.0052 120.384 79.2434 120.41 79.529C120.48 80.3016 119.91 80.9853 119.138 81.0555C119.078 81.0612 119.011 81.062 118.952 81.0604C118.667 81.0481 118.425 80.9902 118.196 80.9184C117.968 80.845 117.757 80.7544 117.562 80.6484C117.169 80.4379 116.835 80.1629 116.531 79.8586C115.912 79.2606 115.285 78.6699 114.671 78.0661C113.435 76.8676 112.217 75.6487 111.007 74.4233C109.801 73.1938 108.608 71.9487 107.434 70.685C106.261 69.4195 105.101 68.1403 103.989 66.812C103.612 66.3617 103.67 65.691 104.121 65.3133C104.508 64.9886 105.06 64.9877 105.446 65.2806L105.446 65.2798Z" fill="#DD3387"/>
<mask id="mask0_504_33610" style="mask-type:luminance" maskUnits="userSpaceOnUse" x="88" y="50" width="20" height="19">
<path d="M95.7635 50.6722C97.9508 50.1378 100.146 50.4339 102.019 51.3583C104.369 52.5185 106.211 54.6724 106.883 57.4186C107.483 59.8686 107.04 62.3285 105.836 64.3331C104.62 66.3646 102.621 67.9286 100.138 68.5356C99.2114 68.7616 98.2813 68.8407 97.3765 68.7844C96.1674 68.7086 95.0015 68.3953 93.9376 67.878C91.5626 66.7236 89.6975 64.5582 89.0195 61.7924C88.415 59.3195 88.871 56.8369 90.0965 54.8225C90.7133 53.8075 91.5259 52.9142 92.4968 52.1986C93.4448 51.4986 94.5454 50.9699 95.7635 50.6722Z" fill="white"/>
</mask>
<g mask="url(#mask0_504_33610)">
<path d="M102.748 79.7832H43.8773C42.8403 79.7832 42 78.9429 42 77.9051L42.009 56.7071C42.009 55.6702 42.8501 54.8298 43.8871 54.8298H102.758C103.795 54.8298 104.635 55.6702 104.635 56.708L104.626 77.9059C104.626 78.9429 103.785 79.7832 102.748 79.7832Z" fill="url(#paint132_linear_504_33610)"/>
<path d="M101.99 79.0175H43.1195C42.0817 79.0175 41.2422 78.1771 41.2422 77.1402L41.2512 55.9423C41.2512 54.9053 42.0923 54.0649 43.1293 54.0649H102C103.037 54.0649 103.877 54.9053 103.877 55.9431L103.868 77.141C103.868 78.178 103.027 79.0183 101.99 79.0183V79.0175Z" fill="url(#paint133_linear_504_33610)"/>
<path d="M100.852 60.9785H98.6683C98.1045 60.9785 97.6484 60.5216 97.6484 59.9578V57.7746C97.6493 57.2108 98.107 56.7539 98.6699 56.7539H100.853C101.417 56.7539 101.873 57.2108 101.873 57.7746V59.9578C101.872 60.5216 101.414 60.9785 100.852 60.9785Z" fill="#F8F9FF"/>
<path d="M92.0626 65.7666H65.812C65.32 65.7666 64.9211 65.3676 64.9219 64.8756V63.0799C64.9227 62.5879 65.3217 62.189 65.8136 62.189H92.0642C92.5562 62.189 92.9551 62.5879 92.9543 63.0799V64.8756C92.9535 65.3676 92.5545 65.7666 92.0626 65.7666Z" fill="#F8F9FF"/>
<path d="M98.9417 69.0822H65.4869C65.1737 69.0822 64.9199 68.8285 64.9199 68.5152V67.5255C64.9199 67.2122 65.1745 66.9585 65.4878 66.9585H98.9425C99.2558 66.9585 99.5095 67.2122 99.5095 67.5255V68.5152C99.5095 68.8285 99.255 69.0822 98.9417 69.0822Z" fill="#F8F9FF"/>
</g>
<path opacity="0.1" d="M95.2596 50.6722C97.4469 50.1378 99.6424 50.4339 101.515 51.3583C103.865 52.5185 105.707 54.6724 106.379 57.4186C106.979 59.8686 106.536 62.3285 105.332 64.3331C104.116 66.3646 102.117 67.9286 99.6343 68.5356C98.7075 68.7616 97.7774 68.8407 96.8726 68.7844C95.6635 68.7086 94.4976 68.3953 93.4337 67.878C91.0587 66.7236 89.1936 64.5582 88.5156 61.7924C87.9111 59.3195 88.3671 56.8369 89.5926 54.8225C90.2094 53.8075 91.022 52.9142 91.9929 52.1986C92.9409 51.4986 94.0415 50.9699 95.2596 50.6722Z" fill="#E2E1F2"/>
<path opacity="0.5" d="M89.2039 56.7755L104.505 66.0576C104.407 66.1572 104.306 66.2542 104.204 66.3497C103.551 66.9575 102.804 67.4732 101.978 67.8729H101.977L88.7617 59.8554C88.7307 58.7939 88.8865 57.7537 89.2047 56.7747L89.2039 56.7755Z" fill="white"/>
<path opacity="0.5" d="M92.6894 52.0622L107.074 60.7895C106.891 62.1985 106.384 63.5333 105.611 64.6943L89.9023 55.1641C90.5754 53.9419 91.5251 52.8756 92.6894 52.0613V52.0622Z" fill="white"/>
<path d="M90.274 52.2923C86.2355 56.5332 86.4003 63.2461 90.6412 67.2839C94.8821 71.3224 101.595 71.1576 105.633 66.9167C109.672 62.675 109.507 55.9629 105.266 51.9243C101.026 47.8858 94.3126 48.0506 90.274 52.2923ZM104.013 65.3748C100.827 68.7206 95.5307 68.8512 92.184 65.6644C88.8373 62.4776 88.7084 57.181 91.8944 53.8351C95.0811 50.4884 100.378 50.3579 103.724 53.5446C107.071 56.7314 107.2 62.0281 104.013 65.3748Z" fill="#DD3387"/>
<defs>
<linearGradient id="paint0_linear_504_33610" x1="31.9957" y1="-21.961" x2="116.421" y2="138.726" gradientUnits="userSpaceOnUse">
<stop offset="0.28" stop-color="#BFC4FF"/>
<stop offset="1" stop-color="#7272F7"/>
</linearGradient>
<linearGradient id="paint1_linear_504_33610" x1="113.852" y1="9.10229" x2="39.031" y2="56.8247" gradientUnits="userSpaceOnUse">
<stop offset="0.28" stop-color="#E7E8FF"/>
<stop offset="1" stop-color="#B4B5FF"/>
</linearGradient>
<linearGradient id="paint2_linear_504_33610" x1="118.267" y1="16.0236" x2="43.446" y2="63.746" gradientUnits="userSpaceOnUse">
<stop offset="0.28" stop-color="#E7E8FF"/>
<stop offset="1" stop-color="#B4B5FF"/>
</linearGradient>
<linearGradient id="paint3_linear_504_33610" x1="122.482" y1="22.6226" x2="47.6608" y2="70.3449" gradientUnits="userSpaceOnUse">
<stop offset="0.28" stop-color="#E7E8FF"/>
<stop offset="1" stop-color="#B4B5FF"/>
</linearGradient>
<linearGradient id="paint4_linear_504_33610" x1="104.034" y1="48.8906" x2="66.8378" y2="67.7698" gradientUnits="userSpaceOnUse">
<stop offset="0.28" stop-color="#E7E8FF"/>
<stop offset="1" stop-color="#B4B5FF"/>
</linearGradient>
<linearGradient id="paint5_linear_504_33610" x1="104.034" y1="58.2407" x2="66.8381" y2="77.113" gradientUnits="userSpaceOnUse">
<stop offset="0.28" stop-color="#E7E8FF"/>
<stop offset="1" stop-color="#B4B5FF"/>
</linearGradient>
<linearGradient id="paint6_linear_504_33610" x1="92.9234" y1="-12.646" x2="14.4843" y2="140.433" gradientUnits="userSpaceOnUse">
<stop offset="0.28" stop-color="#BFC4FF"/>
<stop offset="1" stop-color="#7272F7"/>
</linearGradient>
<linearGradient id="paint7_linear_504_33610" x1="-5.70723" y1="14.6175" x2="74.1509" y2="135.363" gradientUnits="userSpaceOnUse">
<stop offset="0.28" stop-color="#BFC4FF"/>
<stop offset="1" stop-color="#7272F7"/>
</linearGradient>
<linearGradient id="paint8_linear_504_33610" x1="39.1552" y1="13.8961" x2="9.55781" y2="69.5662" gradientUnits="userSpaceOnUse">
<stop offset="0.28" stop-color="#BFC4FF"/>
<stop offset="1" stop-color="#7272F7"/>
</linearGradient>
<linearGradient id="paint9_linear_504_33610" x1="55.3577" y1="62.7012" x2="-2.89621" y2="97.2753" gradientUnits="userSpaceOnUse">
<stop offset="0.28" stop-color="#BFC4FF"/>
<stop offset="1" stop-color="#7272F7"/>
</linearGradient>
<linearGradient id="paint10_linear_504_33610" x1="43.2249" y1="74.0359" x2="13.8067" y2="111.278" gradientUnits="userSpaceOnUse">
<stop offset="0.28" stop-color="#BFC4FF"/>
<stop offset="1" stop-color="#7272F7"/>
</linearGradient>
<linearGradient id="paint11_linear_504_33610" x1="74.8205" y1="59.7947" x2="20.496" y2="68.4917" gradientUnits="userSpaceOnUse">
<stop offset="0.28" stop-color="#BFC4FF"/>
<stop offset="1" stop-color="#7272F7"/>
</linearGradient>
<linearGradient id="paint12_linear_504_33610" x1="164.782" y1="92.101" x2="138.834" y2="124.409" gradientUnits="userSpaceOnUse">
<stop offset="0.28" stop-color="#BFC4FF"/>
<stop offset="1" stop-color="#7272F7"/>
</linearGradient>
<linearGradient id="paint13_linear_504_33610" x1="-12.0777" y1="54.7947" x2="39.426" y2="122.337" gradientUnits="userSpaceOnUse">
<stop offset="0.28" stop-color="#BFC4FF"/>
<stop offset="1" stop-color="#7272F7"/>
</linearGradient>
<linearGradient id="paint14_linear_504_33610" x1="14.2052" y1="104.057" x2="32.7647" y2="105.515" gradientUnits="userSpaceOnUse">
<stop offset="0.28" stop-color="#9DA1FF" stop-opacity="0"/>
<stop offset="1" stop-color="#7272F7"/>
</linearGradient>
<linearGradient id="paint15_linear_504_33610" x1="28.495" y1="81.6082" x2="-10.5606" y2="131.717" gradientUnits="userSpaceOnUse">
<stop offset="0.28" stop-color="#BFC4FF"/>
<stop offset="1" stop-color="#7272F7"/>
</linearGradient>
<linearGradient id="paint16_linear_504_33610" x1="20.2385" y1="94.2794" x2="21.1022" y2="79.7331" gradientUnits="userSpaceOnUse">
<stop offset="0.28" stop-color="#E7E8FF"/>
<stop offset="1" stop-color="#B4B5FF"/>
</linearGradient>
<linearGradient id="paint17_linear_504_33610" x1="20.4865" y1="105.908" x2="21.3429" y2="91.3691" gradientUnits="userSpaceOnUse">
<stop offset="0.28" stop-color="#E7E8FF"/>
<stop offset="1" stop-color="#B4B5FF"/>
</linearGradient>
<linearGradient id="paint18_linear_504_33610" x1="20.7287" y1="117.542" x2="21.5924" y2="102.996" gradientUnits="userSpaceOnUse">
<stop offset="0.28" stop-color="#E7E8FF"/>
<stop offset="1" stop-color="#B4B5FF"/>
</linearGradient>
<linearGradient id="paint19_linear_504_33610" x1="20.9768" y1="129.17" x2="21.8331" y2="114.631" gradientUnits="userSpaceOnUse">
<stop offset="0.28" stop-color="#E7E8FF"/>
<stop offset="1" stop-color="#B4B5FF"/>
</linearGradient>
<linearGradient id="paint20_linear_504_33610" x1="30.9334" y1="108.031" x2="31.4875" y2="92.7707" gradientUnits="userSpaceOnUse">
<stop offset="0.28" stop-color="#BFC4FF"/>
<stop offset="1" stop-color="#7272F7"/>
</linearGradient>
<linearGradient id="paint21_linear_504_33610" x1="88.1432" y1="78.6365" x2="15.4569" y2="161.495" gradientUnits="userSpaceOnUse">
<stop offset="0.28" stop-color="#BFC4FF"/>
<stop offset="1" stop-color="#7272F7"/>
</linearGradient>
<linearGradient id="paint22_linear_504_33610" x1="57.4035" y1="107.195" x2="57.47" y2="98.5854" gradientUnits="userSpaceOnUse">
<stop offset="0.28" stop-color="#BFC4FF"/>
<stop offset="1" stop-color="#7272F7"/>
</linearGradient>
<linearGradient id="paint23_linear_504_33610" x1="61.1351" y1="105.364" x2="43.5604" y2="135.86" gradientUnits="userSpaceOnUse">
<stop offset="0.28" stop-color="#BFC4FF"/>
<stop offset="1" stop-color="#7272F7"/>
</linearGradient>
<linearGradient id="paint24_linear_504_33610" x1="64.5962" y1="107.364" x2="47.0216" y2="137.853" gradientUnits="userSpaceOnUse">
<stop offset="0.28" stop-color="#BFC4FF"/>
<stop offset="1" stop-color="#7272F7"/>
</linearGradient>
<linearGradient id="paint25_linear_504_33610" x1="67.7945" y1="109.207" x2="50.2269" y2="139.703" gradientUnits="userSpaceOnUse">
<stop offset="0.28" stop-color="#BFC4FF"/>
<stop offset="1" stop-color="#7272F7"/>
</linearGradient>
<linearGradient id="paint26_linear_504_33610" x1="71.1117" y1="111.114" x2="53.537" y2="141.61" gradientUnits="userSpaceOnUse">
<stop offset="0.28" stop-color="#BFC4FF"/>
<stop offset="1" stop-color="#7272F7"/>
</linearGradient>
<linearGradient id="paint27_linear_504_33610" x1="35.4338" y1="113.822" x2="20.0218" y2="137.898" gradientUnits="userSpaceOnUse">
<stop offset="0.28" stop-color="#E7E8FF"/>
<stop offset="1" stop-color="#B4B5FF"/>
</linearGradient>
<linearGradient id="paint28_linear_504_33610" x1="26.5664" y1="126.043" x2="29.6273" y2="126.043" gradientUnits="userSpaceOnUse">
<stop offset="0.28" stop-color="#BFC4FF"/>
<stop offset="1" stop-color="#7272F7"/>
</linearGradient>
<linearGradient id="paint29_linear_504_33610" x1="26.5664" y1="122.242" x2="29.6549" y2="122.242" gradientUnits="userSpaceOnUse">
<stop offset="0.28" stop-color="#BFC4FF"/>
<stop offset="1" stop-color="#7272F7"/>
</linearGradient>
<linearGradient id="paint30_linear_504_33610" x1="41.5402" y1="113.814" x2="26.128" y2="137.898" gradientUnits="userSpaceOnUse">
<stop offset="0.28" stop-color="#E7E8FF"/>
<stop offset="1" stop-color="#B4B5FF"/>
</linearGradient>
<linearGradient id="paint31_linear_504_33610" x1="32.6797" y1="126.043" x2="35.7405" y2="126.043" gradientUnits="userSpaceOnUse">
<stop offset="0.28" stop-color="#BFC4FF"/>
<stop offset="1" stop-color="#7272F7"/>
</linearGradient>
<linearGradient id="paint32_linear_504_33610" x1="32.6797" y1="122.242" x2="35.7613" y2="122.242" gradientUnits="userSpaceOnUse">
<stop offset="0.28" stop-color="#BFC4FF"/>
<stop offset="1" stop-color="#7272F7"/>
</linearGradient>
<linearGradient id="paint33_linear_504_33610" x1="129.862" y1="88.4086" x2="94.3091" y2="93.3207" gradientUnits="userSpaceOnUse">
<stop offset="0.28" stop-color="#BFC4FF"/>
<stop offset="1" stop-color="#7272F7"/>
</linearGradient>
<linearGradient id="paint34_linear_504_33610" x1="125.461" y1="58.1452" x2="92.8971" y2="148.499" gradientUnits="userSpaceOnUse">
<stop offset="0.28" stop-color="#BFC4FF"/>
<stop offset="1" stop-color="#7272F7"/>
</linearGradient>
<linearGradient id="paint35_linear_504_33610" x1="112.519" y1="42.7666" x2="97.2337" y2="67.3243" gradientUnits="userSpaceOnUse">
<stop offset="0.28" stop-color="#BFC4FF"/>
<stop offset="1" stop-color="#7272F7"/>
</linearGradient>
<linearGradient id="paint36_linear_504_33610" x1="114.262" y1="133.449" x2="113.737" y2="122.051" gradientUnits="userSpaceOnUse">
<stop offset="0.28" stop-color="#E7E8FF"/>
<stop offset="1" stop-color="#B4B5FF"/>
</linearGradient>
<linearGradient id="paint37_linear_504_33610" x1="149.089" y1="68.6359" x2="122.341" y2="139.181" gradientUnits="userSpaceOnUse">
<stop offset="0.28" stop-color="#BFC4FF"/>
<stop offset="1" stop-color="#7272F7"/>
</linearGradient>
<linearGradient id="paint38_linear_504_33610" x1="136.59" y1="83.5855" x2="119.304" y2="117.817" gradientUnits="userSpaceOnUse">
<stop offset="0.28" stop-color="#BFC4FF"/>
<stop offset="1" stop-color="#7272F7"/>
</linearGradient>
<linearGradient id="paint39_linear_504_33610" x1="137.302" y1="80.6299" x2="119.638" y2="97.3857" gradientUnits="userSpaceOnUse">
<stop offset="0.28" stop-color="#BFC4FF"/>
<stop offset="1" stop-color="#7272F7"/>
</linearGradient>
<linearGradient id="paint40_linear_504_33610" x1="129.28" y1="81.5442" x2="114.931" y2="101.806" gradientUnits="userSpaceOnUse">
<stop offset="0.28" stop-color="#BFC4FF"/>
<stop offset="1" stop-color="#7272F7"/>
</linearGradient>
<linearGradient id="paint41_linear_504_33610" x1="69.5571" y1="53.4457" x2="86.6888" y2="93.7627" gradientUnits="userSpaceOnUse">
<stop stop-color="white"/>
<stop offset="0.11" stop-color="#EEECFC"/>
<stop offset="0.33" stop-color="#D4D9FB"/>
<stop offset="0.5" stop-color="#AEB9F8"/>
<stop offset="0.72" stop-color="#ACB5FB"/>
<stop offset="1" stop-color="#90A5F0"/>
</linearGradient>
<linearGradient id="paint42_linear_504_33610" x1="79.9043" y1="82.6761" x2="34.861" y2="-58.2147" gradientUnits="userSpaceOnUse">
<stop stop-color="#F0F2FF"/>
<stop offset="0.14" stop-color="#DFE5FF"/>
<stop offset="0.39" stop-color="#D4DDF7"/>
<stop offset="0.67" stop-color="#C7D2FF"/>
<stop offset="1" stop-color="#A7B1FF"/>
</linearGradient>
<linearGradient id="paint43_linear_504_33610" x1="56.7669" y1="56.7175" x2="57.3234" y2="70.314" gradientUnits="userSpaceOnUse">
<stop offset="0.28" stop-color="#BDC3FF"/>
<stop offset="1" stop-color="#7272FF"/>
</linearGradient>
<linearGradient id="paint44_linear_504_33610" x1="57.5254" y1="64.9316" x2="57.3059" y2="74.558" gradientUnits="userSpaceOnUse">
<stop offset="0.28" stop-color="#BDC3FF"/>
<stop offset="1" stop-color="#7272FF"/>
</linearGradient>
<linearGradient id="paint45_linear_504_33610" x1="nan" y1="nan" x2="nan" y2="nan" gradientUnits="userSpaceOnUse">
<stop stop-color="#7A7BFF"/>
<stop offset="1" stop-color="#9DA1FF"/>
</linearGradient>
<linearGradient id="paint46_linear_504_33610" x1="56.8316" y1="65.1194" x2="63.5062" y2="51.0905" gradientUnits="userSpaceOnUse">
<stop offset="0.28" stop-color="#BDC3FF"/>
<stop offset="1" stop-color="#7272FF"/>
</linearGradient>
<linearGradient id="paint47_linear_504_33610" x1="61.7401" y1="57.1949" x2="60.7513" y2="81.2964" gradientUnits="userSpaceOnUse">
<stop offset="0.1" stop-color="#BDC3FF"/>
<stop offset="1" stop-color="#7272FF"/>
</linearGradient>
<linearGradient id="paint48_linear_504_33610" x1="54.4005" y1="66.0587" x2="59.7771" y2="77.6767" gradientUnits="userSpaceOnUse">
<stop offset="0.28" stop-color="#BDC3FF"/>
<stop offset="1" stop-color="#7272FF"/>
</linearGradient>
<linearGradient id="paint49_linear_504_33610" x1="59.8362" y1="58.0337" x2="58.8678" y2="64.3575" gradientUnits="userSpaceOnUse">
<stop offset="0.28" stop-color="#BDC3FF"/>
<stop offset="1" stop-color="#7272FF"/>
</linearGradient>
<linearGradient id="paint50_linear_504_33610" x1="59.2421" y1="57.2432" x2="58.6449" y2="62.5373" gradientUnits="userSpaceOnUse">
<stop offset="0.28" stop-color="#BDC3FF"/>
<stop offset="1" stop-color="#7272FF"/>
</linearGradient>
<linearGradient id="paint51_linear_504_33610" x1="61.5491" y1="69.8639" x2="63.1972" y2="61.7892" gradientUnits="userSpaceOnUse">
<stop offset="0.28" stop-color="#BDC3FF"/>
<stop offset="1" stop-color="#7272FF"/>
</linearGradient>
<linearGradient id="paint52_linear_504_33610" x1="61.7253" y1="63.8232" x2="60.6541" y2="71.6099" gradientUnits="userSpaceOnUse">
<stop offset="0.28" stop-color="#BDC3FF"/>
<stop offset="1" stop-color="#7272FF"/>
</linearGradient>
<linearGradient id="paint53_linear_504_33610" x1="60.6929" y1="64.1252" x2="63.3298" y2="75.5783" gradientUnits="userSpaceOnUse">
<stop offset="0.28" stop-color="#BDC3FF"/>
<stop offset="1" stop-color="#7272FF"/>
</linearGradient>
<linearGradient id="paint54_linear_504_33610" x1="61.1909" y1="63.1283" x2="61.7473" y2="75.5083" gradientUnits="userSpaceOnUse">
<stop offset="0.28" stop-color="#BDC3FF"/>
<stop offset="1" stop-color="#7272FF"/>
</linearGradient>
<linearGradient id="paint55_linear_504_33610" x1="58.5202" y1="60.8957" x2="62.8051" y2="65.4483" gradientUnits="userSpaceOnUse">
<stop offset="0.28" stop-color="#BDC3FF"/>
<stop offset="1" stop-color="#7272FF"/>
</linearGradient>
<linearGradient id="paint56_linear_504_33610" x1="61.1351" y1="63.1311" x2="61.6915" y2="75.5111" gradientUnits="userSpaceOnUse">
<stop offset="0.28" stop-color="#BDC3FF"/>
<stop offset="1" stop-color="#7272FF"/>
</linearGradient>
<linearGradient id="paint57_linear_504_33610" x1="59.2442" y1="60.2399" x2="59.2238" y2="63.062" gradientUnits="userSpaceOnUse">
<stop offset="0.28" stop-color="#BDC3FF"/>
<stop offset="1" stop-color="#7272FF"/>
</linearGradient>
<linearGradient id="paint58_linear_504_33610" x1="57.9116" y1="61.4692" x2="62.1965" y2="66.0218" gradientUnits="userSpaceOnUse">
<stop offset="0.28" stop-color="#BDC3FF"/>
<stop offset="1" stop-color="#7272FF"/>
</linearGradient>
<linearGradient id="paint59_linear_504_33610" x1="55.5731" y1="69.6256" x2="55.5625" y2="71.9688" gradientUnits="userSpaceOnUse">
<stop offset="0.28" stop-color="#BDC3FF"/>
<stop offset="1" stop-color="#7272FF"/>
</linearGradient>
<linearGradient id="paint60_linear_504_33610" x1="60.1958" y1="58.8829" x2="60.0718" y2="63.9707" gradientUnits="userSpaceOnUse">
<stop offset="0.28" stop-color="#BDC3FF"/>
<stop offset="1" stop-color="#7272FF"/>
</linearGradient>
<linearGradient id="paint61_linear_504_33610" x1="83.117" y1="64.992" x2="111.177" y2="89.5815" gradientUnits="userSpaceOnUse">
<stop stop-color="#A4AEFB"/>
<stop offset="0.67" stop-color="#BDCFFF" stop-opacity="0.95"/>
<stop offset="1" stop-color="#A5BFFF"/>
</linearGradient>
<linearGradient id="paint62_linear_504_33610" x1="69.5572" y1="77.4315" x2="86.688" y2="117.749" gradientUnits="userSpaceOnUse">
<stop stop-color="white"/>
<stop offset="0.11" stop-color="#EEECFC"/>
<stop offset="0.33" stop-color="#D4D9FB"/>
<stop offset="0.5" stop-color="#AEB9F8"/>
<stop offset="0.72" stop-color="#ACB5FB"/>
<stop offset="1" stop-color="#90A5F0"/>
</linearGradient>
<linearGradient id="paint63_linear_504_33610" x1="79.9043" y1="106.662" x2="34.861" y2="-34.229" gradientUnits="userSpaceOnUse">
<stop stop-color="#F0F2FF"/>
<stop offset="0.14" stop-color="#DFE5FF"/>
<stop offset="0.39" stop-color="#D4DDF7"/>
<stop offset="0.67" stop-color="#C7D2FF"/>
<stop offset="1" stop-color="#A7B1FF"/>
</linearGradient>
<linearGradient id="paint64_linear_504_33610" x1="56.2438" y1="77.9563" x2="66.1297" y2="97.4572" gradientUnits="userSpaceOnUse">
<stop offset="0.28" stop-color="#BDC3FF"/>
<stop offset="1" stop-color="#7272FF"/>
</linearGradient>
<linearGradient id="paint65_linear_504_33610" x1="66.3556" y1="81.6732" x2="57.2807" y2="87.6723" gradientUnits="userSpaceOnUse">
<stop offset="0.28" stop-color="#E6E7FF"/>
<stop offset="1" stop-color="#B3B4FF"/>
</linearGradient>
<linearGradient id="paint66_linear_504_33610" x1="66.9031" y1="82.4998" x2="57.8282" y2="88.4989" gradientUnits="userSpaceOnUse">
<stop offset="0.28" stop-color="#E6E7FF"/>
<stop offset="1" stop-color="#B3B4FF"/>
</linearGradient>
<linearGradient id="paint67_linear_504_33610" x1="67.4244" y1="83.2881" x2="58.3495" y2="89.2872" gradientUnits="userSpaceOnUse">
<stop offset="0.28" stop-color="#E6E7FF"/>
<stop offset="1" stop-color="#B3B4FF"/>
</linearGradient>
<linearGradient id="paint68_linear_504_33610" x1="65.1421" y1="86.434" x2="60.6026" y2="88.822" gradientUnits="userSpaceOnUse">
<stop offset="0.28" stop-color="#E6E7FF"/>
<stop offset="1" stop-color="#B3B4FF"/>
</linearGradient>
<linearGradient id="paint69_linear_504_33610" x1="65.1429" y1="87.5508" x2="60.6034" y2="89.938" gradientUnits="userSpaceOnUse">
<stop offset="0.28" stop-color="#E6E7FF"/>
<stop offset="1" stop-color="#B3B4FF"/>
</linearGradient>
<linearGradient id="paint70_linear_504_33610" x1="63.7517" y1="79.0732" x2="54.5715" y2="97.6392" gradientUnits="userSpaceOnUse">
<stop offset="0.28" stop-color="#BDC3FF"/>
<stop offset="1" stop-color="#7272FF"/>
</linearGradient>
<linearGradient id="paint71_linear_504_33610" x1="51.5688" y1="82.3293" x2="60.9782" y2="97.0737" gradientUnits="userSpaceOnUse">
<stop offset="0.28" stop-color="#BDC3FF"/>
<stop offset="1" stop-color="#7272FF"/>
</linearGradient>
<linearGradient id="paint72_linear_504_33610" x1="57.103" y1="82.2526" x2="53.6364" y2="89.0105" gradientUnits="userSpaceOnUse">
<stop offset="0.28" stop-color="#BDC3FF"/>
<stop offset="1" stop-color="#7272FF"/>
</linearGradient>
<linearGradient id="paint73_linear_504_33610" x1="59.1113" y1="88.0819" x2="52.0304" y2="92.437" gradientUnits="userSpaceOnUse">
<stop offset="0.28" stop-color="#BDC3FF"/>
<stop offset="1" stop-color="#7272FF"/>
</linearGradient>
<linearGradient id="paint74_linear_504_33610" x1="57.6057" y1="89.4405" x2="54.1203" y2="94.0134" gradientUnits="userSpaceOnUse">
<stop offset="0.28" stop-color="#BDC3FF"/>
<stop offset="1" stop-color="#7272FF"/>
</linearGradient>
<linearGradient id="paint75_linear_504_33610" x1="61.5253" y1="87.7377" x2="54.8066" y2="88.8522" gradientUnits="userSpaceOnUse">
<stop offset="0.28" stop-color="#BDC3FF"/>
<stop offset="1" stop-color="#7272FF"/>
</linearGradient>
<linearGradient id="paint76_linear_504_33610" x1="49.9074" y1="87.1341" x2="56.0028" y2="95.4184" gradientUnits="userSpaceOnUse">
<stop offset="0.28" stop-color="#BDC3FF"/>
<stop offset="1" stop-color="#7272FF"/>
</linearGradient>
<linearGradient id="paint77_linear_504_33610" x1="53.1488" y1="93.0336" x2="55.4471" y2="93.2205" gradientUnits="userSpaceOnUse">
<stop offset="0.28" stop-color="#9BA0FF" stop-opacity="0"/>
<stop offset="1" stop-color="#7272FF"/>
</linearGradient>
<linearGradient id="paint78_linear_504_33610" x1="54.9124" y1="90.3453" x2="50.2864" y2="96.4962" gradientUnits="userSpaceOnUse">
<stop offset="0.28" stop-color="#BDC3FF"/>
<stop offset="1" stop-color="#7272FF"/>
</linearGradient>
<linearGradient id="paint79_linear_504_33610" x1="53.8962" y1="91.8653" x2="53.9957" y2="90.1259" gradientUnits="userSpaceOnUse">
<stop offset="0.28" stop-color="#E6E7FF"/>
<stop offset="1" stop-color="#B3B4FF"/>
</linearGradient>
<linearGradient id="paint80_linear_504_33610" x1="53.9283" y1="93.2543" x2="54.027" y2="91.5157" gradientUnits="userSpaceOnUse">
<stop offset="0.28" stop-color="#E6E7FF"/>
<stop offset="1" stop-color="#B3B4FF"/>
</linearGradient>
<linearGradient id="paint81_linear_504_33610" x1="53.9584" y1="94.6457" x2="54.0579" y2="92.9062" gradientUnits="userSpaceOnUse">
<stop offset="0.28" stop-color="#E6E7FF"/>
<stop offset="1" stop-color="#B3B4FF"/>
</linearGradient>
<linearGradient id="paint82_linear_504_33610" x1="53.9885" y1="96.0357" x2="54.0872" y2="94.2971" gradientUnits="userSpaceOnUse">
<stop offset="0.28" stop-color="#E6E7FF"/>
<stop offset="1" stop-color="#B3B4FF"/>
</linearGradient>
<linearGradient id="paint83_linear_504_33610" x1="56.0895" y1="93.5086" x2="56.1531" y2="91.6843" gradientUnits="userSpaceOnUse">
<stop offset="0.28" stop-color="#BDC3FF"/>
<stop offset="1" stop-color="#7272FF"/>
</linearGradient>
<linearGradient id="paint84_linear_504_33610" x1="63.165" y1="89.9857" x2="54.5208" y2="100.197" gradientUnits="userSpaceOnUse">
<stop offset="0.28" stop-color="#BDC3FF"/>
<stop offset="1" stop-color="#7272FF"/>
</linearGradient>
<linearGradient id="paint85_linear_504_33610" x1="59.3674" y1="93.4091" x2="59.3756" y2="92.3794" gradientUnits="userSpaceOnUse">
<stop offset="0.28" stop-color="#BDC3FF"/>
<stop offset="1" stop-color="#7272FF"/>
</linearGradient>
<linearGradient id="paint86_linear_504_33610" x1="59.8256" y1="93.1874" x2="57.7631" y2="96.8964" gradientUnits="userSpaceOnUse">
<stop offset="0.28" stop-color="#BDC3FF"/>
<stop offset="1" stop-color="#7272FF"/>
</linearGradient>
<linearGradient id="paint87_linear_504_33610" x1="60.254" y1="93.4264" x2="58.1915" y2="97.1354" gradientUnits="userSpaceOnUse">
<stop offset="0.28" stop-color="#BDC3FF"/>
<stop offset="1" stop-color="#7272FF"/>
</linearGradient>
<linearGradient id="paint88_linear_504_33610" x1="60.6523" y1="93.6467" x2="58.5898" y2="97.3565" gradientUnits="userSpaceOnUse">
<stop offset="0.28" stop-color="#BDC3FF"/>
<stop offset="1" stop-color="#7272FF"/>
</linearGradient>
<linearGradient id="paint89_linear_504_33610" x1="61.0621" y1="93.8752" x2="58.9996" y2="97.5841" gradientUnits="userSpaceOnUse">
<stop offset="0.28" stop-color="#BDC3FF"/>
<stop offset="1" stop-color="#7272FF"/>
</linearGradient>
<linearGradient id="paint90_linear_504_33610" x1="56.6424" y1="94.1987" x2="54.8288" y2="97.1359" gradientUnits="userSpaceOnUse">
<stop offset="0.28" stop-color="#E6E7FF"/>
<stop offset="1" stop-color="#B3B4FF"/>
</linearGradient>
<linearGradient id="paint91_linear_504_33610" x1="55.5489" y1="95.6624" x2="55.9282" y2="95.6624" gradientUnits="userSpaceOnUse">
<stop offset="0.28" stop-color="#BDC3FF"/>
<stop offset="1" stop-color="#7272FF"/>
</linearGradient>
<linearGradient id="paint92_linear_504_33610" x1="55.5489" y1="95.2077" x2="55.9315" y2="95.2077" gradientUnits="userSpaceOnUse">
<stop offset="0.28" stop-color="#BDC3FF"/>
<stop offset="1" stop-color="#7272FF"/>
</linearGradient>
<linearGradient id="paint93_linear_504_33610" x1="57.4002" y1="94.1987" x2="55.5858" y2="97.1367" gradientUnits="userSpaceOnUse">
<stop offset="0.28" stop-color="#E6E7FF"/>
<stop offset="1" stop-color="#B3B4FF"/>
</linearGradient>
<linearGradient id="paint94_linear_504_33610" x1="56.3039" y1="95.6624" x2="56.6833" y2="95.6624" gradientUnits="userSpaceOnUse">
<stop offset="0.28" stop-color="#BDC3FF"/>
<stop offset="1" stop-color="#7272FF"/>
</linearGradient>
<linearGradient id="paint95_linear_504_33610" x1="56.3039" y1="95.2071" x2="56.6857" y2="95.2071" gradientUnits="userSpaceOnUse">
<stop offset="0.28" stop-color="#BDC3FF"/>
<stop offset="1" stop-color="#7272FF"/>
</linearGradient>
<linearGradient id="paint96_linear_504_33610" x1="83.1171" y1="88.978" x2="111.177" y2="113.567" gradientUnits="userSpaceOnUse">
<stop stop-color="#A4AEFB"/>
<stop offset="0.67" stop-color="#BDCFFF" stop-opacity="0.95"/>
<stop offset="1" stop-color="#A5BFFF"/>
</linearGradient>
<linearGradient id="paint97_linear_504_33610" x1="69.556" y1="101.419" x2="86.6869" y2="141.737" gradientUnits="userSpaceOnUse">
<stop stop-color="white"/>
<stop offset="0.11" stop-color="#EEECFC"/>
<stop offset="0.33" stop-color="#D4D9FB"/>
<stop offset="0.5" stop-color="#AEB9F8"/>
<stop offset="0.72" stop-color="#ACB5FB"/>
<stop offset="1" stop-color="#90A5F0"/>
</linearGradient>
<linearGradient id="paint98_linear_504_33610" x1="79.9051" y1="130.649" x2="34.8618" y2="-10.2415" gradientUnits="userSpaceOnUse">
<stop stop-color="#F0F2FF"/>
<stop offset="0.14" stop-color="#DFE5FF"/>
<stop offset="0.39" stop-color="#D4DDF7"/>
<stop offset="0.67" stop-color="#C7D2FF"/>
<stop offset="1" stop-color="#A7B1FF"/>
</linearGradient>
<linearGradient id="paint99_linear_504_33610" x1="59.4015" y1="105.269" x2="58.8459" y2="118.865" gradientUnits="userSpaceOnUse">
<stop offset="0.28" stop-color="#BDC3FF"/>
<stop offset="1" stop-color="#7272FF"/>
</linearGradient>
<linearGradient id="paint100_linear_504_33610" x1="58.6433" y1="113.483" x2="58.8628" y2="123.11" gradientUnits="userSpaceOnUse">
<stop offset="0.28" stop-color="#BDC3FF"/>
<stop offset="1" stop-color="#7272FF"/>
</linearGradient>
<linearGradient id="paint101_linear_504_33610" x1="nan" y1="nan" x2="nan" y2="nan" gradientUnits="userSpaceOnUse">
<stop stop-color="#7A7BFF"/>
<stop offset="1" stop-color="#9DA1FF"/>
</linearGradient>
<linearGradient id="paint102_linear_504_33610" x1="59.338" y1="113.67" x2="52.6634" y2="99.6419" gradientUnits="userSpaceOnUse">
<stop offset="0.28" stop-color="#BDC3FF"/>
<stop offset="1" stop-color="#7272FF"/>
</linearGradient>
<linearGradient id="paint103_linear_504_33610" x1="54.4281" y1="105.746" x2="55.4161" y2="129.848" gradientUnits="userSpaceOnUse">
<stop offset="0.1" stop-color="#BDC3FF"/>
<stop offset="1" stop-color="#7272FF"/>
</linearGradient>
<linearGradient id="paint104_linear_504_33610" x1="61.7699" y1="114.609" x2="56.3934" y2="126.228" gradientUnits="userSpaceOnUse">
<stop offset="0.28" stop-color="#BDC3FF"/>
<stop offset="1" stop-color="#7272FF"/>
</linearGradient>
<linearGradient id="paint105_linear_504_33610" x1="56.3337" y1="106.584" x2="57.3022" y2="112.909" gradientUnits="userSpaceOnUse">
<stop offset="0.28" stop-color="#BDC3FF"/>
<stop offset="1" stop-color="#7272FF"/>
</linearGradient>
<linearGradient id="paint106_linear_504_33610" x1="56.9274" y1="105.794" x2="57.5246" y2="111.088" gradientUnits="userSpaceOnUse">
<stop offset="0.28" stop-color="#BDC3FF"/>
<stop offset="1" stop-color="#7272FF"/>
</linearGradient>
<linearGradient id="paint107_linear_504_33610" x1="54.6198" y1="118.415" x2="52.9718" y2="110.34" gradientUnits="userSpaceOnUse">
<stop offset="0.28" stop-color="#BDC3FF"/>
<stop offset="1" stop-color="#7272FF"/>
</linearGradient>
<linearGradient id="paint108_linear_504_33610" x1="54.4426" y1="112.375" x2="55.5138" y2="120.161" gradientUnits="userSpaceOnUse">
<stop offset="0.28" stop-color="#BDC3FF"/>
<stop offset="1" stop-color="#7272FF"/>
</linearGradient>
<linearGradient id="paint109_linear_504_33610" x1="55.4781" y1="112.675" x2="52.8413" y2="124.129" gradientUnits="userSpaceOnUse">
<stop offset="0.28" stop-color="#BDC3FF"/>
<stop offset="1" stop-color="#7272FF"/>
</linearGradient>
<linearGradient id="paint110_linear_504_33610" x1="54.9787" y1="111.679" x2="54.4223" y2="124.06" gradientUnits="userSpaceOnUse">
<stop offset="0.28" stop-color="#BDC3FF"/>
<stop offset="1" stop-color="#7272FF"/>
</linearGradient>
<linearGradient id="paint111_linear_504_33610" x1="57.6478" y1="109.447" x2="53.3629" y2="114" gradientUnits="userSpaceOnUse">
<stop offset="0.28" stop-color="#BDC3FF"/>
<stop offset="1" stop-color="#7272FF"/>
</linearGradient>
<linearGradient id="paint112_linear_504_33610" x1="55.0322" y1="111.682" x2="54.4758" y2="124.063" gradientUnits="userSpaceOnUse">
<stop offset="0.28" stop-color="#BDC3FF"/>
<stop offset="1" stop-color="#7272FF"/>
</linearGradient>
<linearGradient id="paint113_linear_504_33610" x1="56.9239" y1="108.79" x2="56.9443" y2="111.613" gradientUnits="userSpaceOnUse">
<stop offset="0.28" stop-color="#BDC3FF"/>
<stop offset="1" stop-color="#7272FF"/>
</linearGradient>
<linearGradient id="paint114_linear_504_33610" x1="58.2581" y1="110.021" x2="53.9732" y2="114.573" gradientUnits="userSpaceOnUse">
<stop offset="0.28" stop-color="#BDC3FF"/>
<stop offset="1" stop-color="#7272FF"/>
</linearGradient>
<linearGradient id="paint115_linear_504_33610" x1="60.5953" y1="118.177" x2="60.6059" y2="120.52" gradientUnits="userSpaceOnUse">
<stop offset="0.28" stop-color="#BDC3FF"/>
<stop offset="1" stop-color="#7272FF"/>
</linearGradient>
<linearGradient id="paint116_linear_504_33610" x1="55.9734" y1="107.434" x2="56.0974" y2="112.522" gradientUnits="userSpaceOnUse">
<stop offset="0.28" stop-color="#BDC3FF"/>
<stop offset="1" stop-color="#7272FF"/>
</linearGradient>
<linearGradient id="paint117_linear_504_33610" x1="63.715" y1="117.496" x2="63.6514" y2="115.671" gradientUnits="userSpaceOnUse">
<stop offset="0.28" stop-color="#BDC3FF"/>
<stop offset="1" stop-color="#7272FF"/>
</linearGradient>
<linearGradient id="paint118_linear_504_33610" x1="56.6393" y1="113.973" x2="65.2826" y2="124.184" gradientUnits="userSpaceOnUse">
<stop offset="0.28" stop-color="#BDC3FF"/>
<stop offset="1" stop-color="#7272FF"/>
</linearGradient>
<linearGradient id="paint119_linear_504_33610" x1="60.4367" y1="117.396" x2="60.4293" y2="116.367" gradientUnits="userSpaceOnUse">
<stop offset="0.28" stop-color="#BDC3FF"/>
<stop offset="1" stop-color="#7272FF"/>
</linearGradient>
<linearGradient id="paint120_linear_504_33610" x1="59.9789" y1="117.174" x2="62.0414" y2="120.884" gradientUnits="userSpaceOnUse">
<stop offset="0.28" stop-color="#BDC3FF"/>
<stop offset="1" stop-color="#7272FF"/>
</linearGradient>
<linearGradient id="paint121_linear_504_33610" x1="59.5494" y1="117.414" x2="61.6127" y2="121.122" gradientUnits="userSpaceOnUse">
<stop offset="0.28" stop-color="#BDC3FF"/>
<stop offset="1" stop-color="#7272FF"/>
</linearGradient>
<linearGradient id="paint122_linear_504_33610" x1="59.1539" y1="117.635" x2="61.2155" y2="121.344" gradientUnits="userSpaceOnUse">
<stop offset="0.28" stop-color="#BDC3FF"/>
<stop offset="1" stop-color="#7272FF"/>
</linearGradient>
<linearGradient id="paint123_linear_504_33610" x1="58.7424" y1="117.862" x2="60.805" y2="121.572" gradientUnits="userSpaceOnUse">
<stop offset="0.28" stop-color="#BDC3FF"/>
<stop offset="1" stop-color="#7272FF"/>
</linearGradient>
<linearGradient id="paint124_linear_504_33610" x1="63.1615" y1="118.186" x2="64.976" y2="121.123" gradientUnits="userSpaceOnUse">
<stop offset="0.28" stop-color="#E6E7FF"/>
<stop offset="1" stop-color="#B3B4FF"/>
</linearGradient>
<linearGradient id="paint125_linear_504_33610" x1="64.2556" y1="119.649" x2="63.877" y2="119.649" gradientUnits="userSpaceOnUse">
<stop offset="0.28" stop-color="#BDC3FF"/>
<stop offset="1" stop-color="#7272FF"/>
</linearGradient>
<linearGradient id="paint126_linear_504_33610" x1="64.2561" y1="119.195" x2="63.8734" y2="119.195" gradientUnits="userSpaceOnUse">
<stop offset="0.28" stop-color="#BDC3FF"/>
<stop offset="1" stop-color="#7272FF"/>
</linearGradient>
<linearGradient id="paint127_linear_504_33610" x1="62.4048" y1="118.185" x2="64.2193" y2="121.123" gradientUnits="userSpaceOnUse">
<stop offset="0.28" stop-color="#E6E7FF"/>
<stop offset="1" stop-color="#B3B4FF"/>
</linearGradient>
<linearGradient id="paint128_linear_504_33610" x1="63.4997" y1="119.649" x2="63.1203" y2="119.649" gradientUnits="userSpaceOnUse">
<stop offset="0.28" stop-color="#BDC3FF"/>
<stop offset="1" stop-color="#7272FF"/>
</linearGradient>
<linearGradient id="paint129_linear_504_33610" x1="63.4991" y1="119.194" x2="63.1172" y2="119.194" gradientUnits="userSpaceOnUse">
<stop offset="0.28" stop-color="#BDC3FF"/>
<stop offset="1" stop-color="#7272FF"/>
</linearGradient>
<linearGradient id="paint130_linear_504_33610" x1="83.1171" y1="112.965" x2="111.177" y2="137.555" gradientUnits="userSpaceOnUse">
<stop stop-color="#A4AEFB"/>
<stop offset="0.67" stop-color="#BDCFFF" stop-opacity="0.95"/>
<stop offset="1" stop-color="#A5BFFF"/>
</linearGradient>
<linearGradient id="paint131_linear_504_33610" x1="116.42" y1="44.4674" x2="121.189" y2="89.6053" gradientUnits="userSpaceOnUse">
<stop offset="0.28" stop-color="#BDC3FF"/>
<stop offset="1" stop-color="#7272FF"/>
</linearGradient>
<linearGradient id="paint132_linear_504_33610" x1="66.401" y1="51.0107" x2="86.9267" y2="99.3184" gradientUnits="userSpaceOnUse">
<stop stop-color="white"/>
<stop offset="0.11" stop-color="#EEECFC"/>
<stop offset="0.33" stop-color="#D4D9FB"/>
<stop offset="0.5" stop-color="#AEB9F8"/>
<stop offset="0.72" stop-color="#ACB5FB"/>
<stop offset="1" stop-color="#90A5F0"/>
</linearGradient>
<linearGradient id="paint133_linear_504_33610" x1="78.7983" y1="86.0323" x2="24.8285" y2="-82.7783" gradientUnits="userSpaceOnUse">
<stop stop-color="#F0F2FF"/>
<stop offset="0.14" stop-color="#DFE5FF"/>
<stop offset="0.39" stop-color="#D4DDF7"/>
<stop offset="0.67" stop-color="#C7D2FF"/>
<stop offset="1" stop-color="#A7B1FF"/>
</linearGradient>
</defs>
</svg>
