<svg width="159" height="132" viewBox="0 0 159 132" fill="none" xmlns="http://www.w3.org/2000/svg">
<g opacity="0.7">
<path d="M61.8595 23.3091H45.8574V131.999H61.8595V23.3091Z" fill="#D2D3FF"/>
<path d="M96.1357 23.3091H61.8652V131.999H96.1357V23.3091Z" fill="url(#paint0_linear_2488_4013)"/>
<path d="M91.7977 30.2588H65.252V33.4383H91.7977V30.2588Z" fill="url(#paint1_linear_2488_4013)"/>
<path d="M91.7977 40.1953H65.252V43.3748H91.7977V40.1953Z" fill="url(#paint2_linear_2488_4013)"/>
<path d="M91.7977 49.666H65.252V52.8455H91.7977V49.666Z" fill="url(#paint3_linear_2488_4013)"/>
<path d="M91.7977 60.0796H65.252V63.2591H91.7977V60.0796Z" fill="url(#paint4_linear_2488_4013)"/>
<path d="M91.7977 69.4229H65.252V72.6024H91.7977V69.4229Z" fill="url(#paint5_linear_2488_4013)"/>
<path d="M56.0278 29.2241H51.7578V100.072H56.0278V29.2241Z" fill="url(#paint6_linear_2488_4013)"/>
<path d="M56.0286 39.9019H52.0488V40.6164H56.0286V39.9019Z" fill="#E9EAFF"/>
<path d="M56.0286 54.2148H52.0488V54.9293H56.0286V54.2148Z" fill="#E9EAFF"/>
<path d="M56.0286 68.5298H52.0488V69.2443H56.0286V68.5298Z" fill="#E9EAFF"/>
<path d="M56.0286 82.8433H52.0488V83.5578H56.0286V82.8433Z" fill="#E9EAFF"/>
<path d="M52.5737 29.2241H51.5234V100.072H52.5737V29.2241Z" fill="#9792FF"/>
<path d="M45.8646 33.8169H23.3125V131.993H45.8646V33.8169Z" fill="url(#paint7_linear_2488_4013)"/>
<path d="M27.2854 33.8169H23.3125V41.7809H27.2854V33.8169Z" fill="url(#paint8_linear_2488_4013)"/>
<path d="M27.2854 41.7803H23.3125V53.6156H27.2854V41.7803Z" fill="#D2D3FF"/>
<path d="M27.2854 53.623H23.3125V69.8583H27.2854V53.623Z" fill="#D2D3FF"/>
<path d="M27.2854 69.8511H23.3125V91.1861H27.2854V69.8511Z" fill="url(#paint9_linear_2488_4013)"/>
<path d="M27.2854 91.1855H23.3125V100.071H27.2854V91.1855Z" fill="url(#paint10_linear_2488_4013)"/>
<path d="M31.3681 33.8169H30.7324V100.072H31.3681V33.8169Z" fill="url(#paint11_linear_2488_4013)"/>
<path d="M158.03 98.2008C158.023 96.1508 157.36 94.7509 156.393 93.3081C155.937 92.6295 155.405 91.9867 155.128 91.2081C154.914 90.6081 154.873 89.951 154.866 89.3082C154.845 87.3654 155.156 85.4297 155.032 83.4941C154.914 81.5584 154.286 79.5299 152.793 78.3514C151.985 77.7085 150.955 77.4371 149.94 77.4728C149.94 77.4728 149.919 77.4728 149.905 77.4728C149.891 77.4728 149.884 77.4728 149.87 77.4728C148.855 77.4371 147.825 77.7085 147.017 78.3514C145.531 79.5299 144.896 81.5584 144.778 83.4941C144.661 85.4297 144.965 87.3654 144.944 89.3082C144.944 89.951 144.896 90.601 144.682 91.2081C144.405 91.9867 143.873 92.6295 143.417 93.3081C142.457 94.7509 141.793 96.1508 141.78 98.2008C141.738 106.493 146.167 108.622 149.864 108.615C149.864 108.615 149.884 108.615 149.898 108.615C149.912 108.615 149.919 108.615 149.933 108.615C153.629 108.615 158.058 106.493 158.017 98.2008H158.03Z" fill="#9792FF"/>
<path d="M149.601 87.8154H149.256V132H149.601V87.8154Z" fill="url(#paint12_linear_2488_4013)"/>
<path d="M30.3117 78.458H13.5703V131.999H30.3117V78.458Z" fill="url(#paint13_linear_2488_4013)"/>
<path d="M30.3045 78.458H22.0547V131.999H30.3045V78.458Z" fill="url(#paint14_linear_2488_4013)"/>
<path d="M13.5781 78.458H5.03125V131.999H13.5781V78.458Z" fill="#73A9B5"/>
<path d="M13.5781 78.458H5.03125V131.999H13.5781V78.458Z" fill="url(#paint15_linear_2488_4013)"/>
<path d="M20.9367 82.2012H16.5977V88.4153H20.9367V82.2012Z" fill="url(#paint16_linear_2488_4013)"/>
<path d="M19.0081 82.186H18.5176V88.4358H19.0081V82.186Z" fill="#9792FF"/>
<path d="M21.1848 93.8301H16.8457V100.044H21.1848V93.8301Z" fill="url(#paint17_linear_2488_4013)"/>
<path d="M19.2562 93.8223H18.7656V100.072H19.2562V93.8223Z" fill="#9792FF"/>
<path d="M21.427 105.463H17.0879V111.677H21.427V105.463Z" fill="url(#paint18_linear_2488_4013)"/>
<path d="M19.5062 105.45H19.0156V111.7H19.5062V105.45Z" fill="#9792FF"/>
<path d="M21.675 117.092H17.3359V123.306H21.675V117.092Z" fill="url(#paint19_linear_2488_4013)"/>
<path d="M19.7484 117.085H19.2578V123.335H19.7484V117.085Z" fill="#9792FF"/>
<path d="M38.1403 100.072H20.252V131.992H38.1403V100.072Z" fill="#D2D3FF"/>
<path d="M38.1403 100.072H20.252V102.258H38.1403V100.072Z" fill="url(#paint20_linear_2488_4013)"/>
<path d="M72.8118 100.072H38.1406V131.992H72.8118V100.072Z" fill="url(#paint21_linear_2488_4013)"/>
<path d="M72.8118 100.072H38.1406V102.258H72.8118V100.072Z" fill="url(#paint22_linear_2488_4013)"/>
<path d="M66.5713 117.85H43.5977V131.999H66.5713V117.85Z" fill="#D2D3FF"/>
<path d="M48.7947 117.85H48.4492V131.999H48.7947V117.85Z" fill="url(#paint23_linear_2488_4013)"/>
<path d="M53.3338 117.85H52.9883V131.999H53.3338V117.85Z" fill="url(#paint24_linear_2488_4013)"/>
<path d="M57.5271 117.85H57.1816V131.992H57.5271V117.85Z" fill="url(#paint25_linear_2488_4013)"/>
<path d="M61.867 117.85H61.5215V131.992H61.867V117.85Z" fill="url(#paint26_linear_2488_4013)"/>
<path d="M66.5713 114.993H43.5977V117.079H66.5713V114.993Z" fill="#D2D3FF"/>
<path d="M27.6612 120.55H24.6211V131.529H27.6612V120.55Z" fill="url(#paint27_linear_2488_4013)"/>
<path d="M27.3476 121.243H24.5977V120.55H27.6585V131.536H27.3476V121.243Z" fill="url(#paint28_linear_2488_4013)"/>
<path d="M27.6861 122.057H24.5977V122.428H27.6861V122.057Z" fill="url(#paint29_linear_2488_4013)"/>
<path d="M33.7745 120.55H30.7344V131.529H33.7745V120.55Z" fill="url(#paint30_linear_2488_4013)"/>
<path d="M33.4609 121.243H30.7109V120.55H33.7718V131.536H33.4609V121.243Z" fill="url(#paint31_linear_2488_4013)"/>
<path d="M33.7994 122.049H30.7109V122.421H33.7994V122.049Z" fill="url(#paint32_linear_2488_4013)"/>
<path d="M73.4462 97.3857H19.6016V100.044H73.4462V97.3857Z" fill="#D2D3FF"/>
<path d="M105.293 52.8525H96.1309V132H105.293V52.8525Z" fill="url(#paint33_linear_2488_4013)"/>
<path d="M118.566 52.8525H105.293V132H118.566V52.8525Z" fill="url(#paint34_linear_2488_4013)"/>
<path d="M101.465 57.0591H96.1309V68.8087H101.465V57.0591Z" fill="url(#paint35_linear_2488_4013)"/>
<g opacity="0.55">
<path d="M101.464 68.8086H100.773V73.2156H101.464V68.8086Z" fill="#E9EAFF"/>
<path d="M101.464 78.3154H100.773V82.7224H101.464V78.3154Z" fill="#E9EAFF"/>
<path d="M101.464 87.8218H100.773V92.2288H101.464V87.8218Z" fill="#E9EAFF"/>
<path d="M101.464 97.335H100.773V101.742H101.464V97.335Z" fill="#E9EAFF"/>
<path d="M101.464 106.843H100.773V111.25H101.464V106.843Z" fill="#E9EAFF"/>
<path d="M101.464 116.35H100.773V120.757H101.464V116.35Z" fill="#E9EAFF"/>
<path d="M101.464 125.856H100.773V130.263H101.464V125.856Z" fill="#E9EAFF"/>
</g>
<path d="M111.996 118.749C110.8 118.749 109.826 119.742 109.826 120.97V131.991H114.165V120.97C114.165 119.742 113.198 118.749 111.996 118.749Z" fill="url(#paint36_linear_2488_4013)"/>
<path d="M111.994 118.749V131.999" stroke="#9792FF" stroke-width="1.67677"/>
<path d="M114.225 122.356H109.865" stroke="#9792FF" stroke-width="1.67677"/>
<path d="M144.205 95.3994H118.066V131.991H144.205V95.3994Z" fill="url(#paint37_linear_2488_4013)"/>
<path d="M122.723 95.3994H118.066V131.991H122.723V95.3994Z" fill="url(#paint38_linear_2488_4013)"/>
<path d="M128.361 99.2285H125.369V103.265H128.361V99.2285Z" fill="#E9EAFF"/>
<path d="M134.939 99.2285H131.947V103.265H134.939V99.2285Z" fill="#E9EAFF"/>
<path d="M140.75 99.2285H137.758V103.265H140.75V99.2285Z" fill="#E9EAFF"/>
<path d="M130.442 87.8154H118.564V95.4081H130.442V87.8154Z" fill="url(#paint39_linear_2488_4013)"/>
<path d="M122.717 87.8154H118.564V95.4081H122.717V87.8154Z" fill="url(#paint40_linear_2488_4013)"/>
<path d="M126.78 91.3721H125.287V95.409H126.78V91.3721Z" fill="#E9EAFF"/>
<path d="M128.424 91.3721H126.932V95.409H128.424V91.3721Z" fill="#E9EAFF"/>
</g>
<path d="M132.78 62.5518H136.556C138.213 62.5518 139.556 61.2087 139.556 59.5518V33.896C139.556 32.2391 138.213 30.896 136.556 30.896H114.162C112.505 30.896 111.162 32.2391 111.162 33.896V37.3564" stroke="white" stroke-opacity="0.14" stroke-linecap="round" stroke-dasharray="3 3"/>
<path d="M3.39446 106.159V131.677C52.2232 131.785 151.042 132 155.688 132C155.366 128.77 156.334 121.664 157.302 114.557C158.27 107.451 155.366 103.252 152.785 102.282C150.719 101.507 142.029 101.959 137.942 102.282C137.835 100.775 137.426 96.4681 136.652 91.2998C135.684 84.8394 132.78 79.9942 131.489 77.733C126.972 70.3036 118.906 72.8877 113.098 72.8877C107.29 72.8877 95.6743 73.8568 93.4157 73.8568H82.4454L33.7242 70.9496C27.3786 70.842 13.1387 70.8204 6.94368 71.5957C-0.765179 72.5604 -0.160414 78.0066 0.163508 80.9238L0.16789 80.9632C0.490546 83.8704 3.39446 103.575 3.39446 106.159Z" fill="url(#paint41_linear_2488_4013)"/>
<path d="M130.844 106.805C130.844 105.836 132.263 103.575 137.942 102.283" stroke="#1C1C1C" stroke-width="0.1" stroke-miterlimit="10" stroke-linecap="round"/>
<path d="M143.75 107.452C144.395 105.406 147.235 101.573 153.43 102.606" stroke="#1C1C1C" stroke-width="0.1" stroke-miterlimit="10" stroke-linecap="round"/>
<path d="M116.971 116.819C117.186 116.603 117.874 116.108 118.907 115.85" stroke="#1C1C1C" stroke-width="0.1" stroke-miterlimit="10" stroke-linecap="round"/>
<path d="M118.26 122.956C122.562 121.664 132.069 119.08 135.683 119.08C140.2 119.08 144.718 119.403 145.04 124.571" stroke="#1C1C1C" stroke-width="0.1" stroke-miterlimit="10" stroke-linecap="round"/>
<path d="M145.041 131.354C145.041 127.37 145.041 118.563 145.041 115.203" stroke="#1C1C1C" stroke-width="0.1" stroke-miterlimit="10" stroke-linecap="round"/>
<path d="M138.572 109.907C138.572 110.66 138.572 112.297 138.572 112.814" stroke="#5E23DC" stroke-width="0.5" stroke-miterlimit="10" stroke-linecap="round"/>
<path d="M31.1424 127.801C31.0349 126.509 31.7877 124.119 35.6596 124.894" stroke="#1C1C1C" stroke-width="0.1" stroke-miterlimit="10" stroke-linecap="round"/>
<path d="M5.00977 104.221C5.22487 104.651 5.9132 105.513 6.9457 105.513C8.23633 105.513 22.4332 104.544 23.7238 104.867C25.0145 105.19 30.8223 105.19 30.4996 114.234C30.4996 115.268 31.1449 126.294 31.4676 131.677" stroke="#1C1C1C" stroke-width="0.1" stroke-miterlimit="10" stroke-linecap="round"/>
<path d="M27.272 83.5476C27.272 85.3565 27.7022 91.8385 27.9173 94.8533L36.9517 111.327H63.7322L65.3455 101.96C65.0228 92.6998 64.2484 73.5341 63.7322 70.9499C63.0869 67.7197 57.9244 68.0427 56.6337 68.0427C55.6012 68.0427 53.4072 68.4734 52.4392 68.6888L40.1782 67.7197L38.2423 68.6888C35.446 69.8732 29.5306 72.6296 28.24 74.1801C26.6267 76.1182 27.272 81.2865 27.272 83.5476Z" fill="#8E90FA"/>
<path d="M59.2148 78.0566L60.1828 80.6408" stroke="#5E23DC" stroke-width="0.363524" stroke-miterlimit="10" stroke-linecap="round"/>
<path d="M38.8875 69.0113C39.1457 65.3935 42.0066 64.3814 43.0821 64.4891C44.5878 67.0732 47.2121 72.9521 48.2446 74.5026C45.3407 75.1487 44.6954 76.4407 44.6954 77.7328C43.7274 76.4407 38.5649 69.9804 38.8875 69.0113Z" fill="#703AFF"/>
<path d="M54.0508 73.8569C53.0183 72.5648 50.6091 72.6725 49.5336 72.8878L49.2109 72.8878L49.8563 69.0116L52.1148 66.7505C52.5451 68.3656 53.5345 72.048 54.0508 73.8569Z" fill="#703AFF"/>
<path d="M41.4688 67.7205C42.1141 66.3208 43.4047 63.1337 43.4047 61.5832C42.4367 60.9371 40.8234 58.353 42.4367 56.7379C43.0377 56.1363 44.1983 58.0559 44.355 58.8444C44.2269 57.2925 46.0152 58.9239 46.9539 59.9681L51.4711 67.3975L50.1805 71.9198C50.3956 72.5658 50.6322 74.2455 49.8578 75.796C47.9219 74.5039 43.7273 73.5349 41.4688 67.7205Z" fill="#F7A58D"/>
<path d="M44.6952 55.1226C43.9208 56.4147 44.1574 58.2451 44.3725 58.9988C44.3725 59.7741 45.6632 63.6288 46.3085 65.4592C47.2765 66.3206 49.7287 67.9788 51.7937 67.7204C54.3749 67.3973 55.9882 60.937 56.3108 58.9988C56.6335 57.0607 56.6335 54.4766 55.9882 53.1845C55.3429 51.8924 50.1804 50.2773 47.2765 50.2773C44.3726 50.2773 45.6632 53.5075 44.6952 55.1226Z" fill="#F7A58D"/>
<path d="M42.7598 53.8304C42.7598 55.8977 43.8353 58.3527 44.373 59.3217C44.0504 56.4146 46.9543 54.7995 47.277 54.4765C47.5351 54.2181 47.3845 52.646 47.277 51.8923H47.5996C49.2129 50.9233 52.7621 53.1844 54.0527 53.5074C55.0852 53.7658 55.5585 53.6151 55.666 53.5074C55.8811 53.6151 56.3759 54.1534 56.634 55.4455C59.5379 55.1225 58.8926 51.5693 57.9246 51.5693C58.699 48.9851 55.4509 48.5545 53.7301 48.6621C53.6225 48.4468 53.0202 47.8869 51.4715 47.37C49.5356 46.724 48.2449 47.6931 48.2449 47.37C43.7277 47.047 42.7598 51.2463 42.7598 53.8304Z" fill="#292949"/>
<path d="M47.9219 55.7673C48.3521 55.552 49.4706 55.2505 50.5031 55.7673" stroke="#1F0247" stroke-width="0.1" stroke-linecap="round"/>
<path d="M53.7285 56.7368C54.0512 56.6291 54.8255 56.6075 55.3418 57.3828" stroke="#1F0247" stroke-width="0.1" stroke-linecap="round"/>
<path d="M52.7613 57.3838V60.291C52.7613 60.8293 52.5032 61.7122 51.4707 60.937" stroke="#1F0247" stroke-width="0.1" stroke-linecap="round"/>
<ellipse cx="49.6949" cy="58.0298" rx="0.483985" ry="0.646037" fill="#1F0247"/>
<ellipse cx="54.2125" cy="59.3228" rx="0.483985" ry="0.646037" fill="#1F0247"/>
<path d="M51.7922 63.1969C51.2759 62.9385 49.8563 61.7972 49.2109 61.2588C49.2109 63.1969 50.5016 64.489 50.8242 64.489C51.1469 64.489 52.4375 63.5199 51.7922 63.1969Z" fill="white"/>
<path d="M43.7271 60.6128C43.7271 59.9668 43.598 58.6101 43.0818 58.3517C42.4364 58.0287 43.0818 60.6128 43.7271 60.6128Z" fill="#F4866E"/>
<path d="M51.1481 67.7201C50.1801 67.5048 47.9215 66.7511 46.6309 65.459" stroke="#F17B61" stroke-width="0.363524" stroke-linecap="round"/>
<path d="M62.4419 74.1799C61.4094 76.5057 62.4419 78.1638 63.0872 78.7022L82.4466 81.2864C82.5542 81.1787 82.8338 80.7695 83.0919 79.9943C85.0279 75.472 81.8013 72.2418 81.156 71.5958C80.5107 70.9498 71.1537 62.5513 67.9271 66.1045C64.7005 69.6577 63.7326 71.2728 62.4419 74.1799Z" fill="#292949"/>
<path d="M117.291 117.464C116.259 115.913 110.838 113.372 108.257 112.296C98.6845 112.188 78.9595 111.973 76.6363 111.973C74.3132 111.973 73.7324 114.987 73.7324 116.495L82.1215 129.093L93.0918 131.677H109.87C111.698 129.846 115.742 125.604 117.291 123.278C119.227 120.371 118.582 119.402 117.291 117.464Z" fill="#5F00FF"/>
<path d="M60.1832 79.9942C60.4413 79.7358 65.0231 77.733 67.2817 76.764L71.1535 75.7949L75.3481 76.441C76.9613 77.1947 80.7042 78.9605 82.7692 79.9942C84.8342 81.0278 85.5655 82.5783 85.6731 83.2244C87.0713 87.2083 89.9967 95.4345 90.5129 96.4681C88.1898 96.2097 85.6731 97.4372 84.7051 98.0832L84.0598 97.1142V101.313L83.7371 106.482C82.6616 108.097 79.9298 111.715 77.6067 113.265C75.2835 114.816 75.133 117.357 75.3481 118.433L68.2496 112.942L57.2793 95.4991C57.2793 93.561 57.3438 88.8449 57.602 85.4855C57.9246 81.2862 59.8605 80.3172 60.1832 79.9942Z" fill="#ED1B8A"/>
<path d="M68.5719 76.4414C69.3463 75.6661 70.4003 71.3807 70.8305 69.335L76.3156 73.5342V75.1493L75.993 77.0874C76.4232 77.1951 77.4772 77.7981 78.2516 79.3485C79.026 80.899 77.2836 81.2867 76.3156 81.2867L75.993 83.5478L74.7024 81.6097C69.0236 80.576 67.3888 77.9488 67.2812 76.7644L68.5719 76.4414Z" fill="#F7A58D"/>
<path d="M69.2168 75.4722C69.4749 74.697 70.1848 71.919 70.5074 70.627C72.0132 71.596 74.8956 73.5987 74.3793 73.8571C73.734 74.1802 71.1527 75.4722 69.2168 75.4722Z" fill="#F4866E"/>
<path d="M67.9255 60.9364C66.6349 64.2958 68.0331 66.8584 68.8935 67.7198C72.2276 68.0428 79.5411 68.2366 82.1224 66.4277C85.3489 64.1665 83.0903 61.9054 82.1224 60.2903C81.1544 58.6752 79.5411 58.0292 78.2505 57.3832C74.7013 54.476 69.5388 56.7371 67.9255 60.9364Z" fill="#292949"/>
<path d="M81.8012 68.3665C83.0918 63.1982 79.9728 60.8294 78.252 60.291L75.6707 61.2601C73.8423 62.4445 70.0565 64.8133 69.5402 64.8133C68.8949 64.8133 68.5723 66.1054 68.5723 67.3974C68.5723 68.4311 69.6478 68.9048 70.1856 69.0125C70.078 69.4432 70.1856 70.6922 71.4762 72.2427C73.0895 74.1808 75.6707 75.7959 77.284 75.4729C78.8973 75.1499 80.5106 72.5657 81.8012 68.3665Z" fill="#F7A58D"/>
<path d="M82.123 60.6143C82.6608 61.1526 84.7043 63.5214 84.7043 64.8135" stroke="#292949" stroke-width="0.4" stroke-linecap="round"/>
<path d="M78.5746 60.2906C75.7352 67.5262 70.7233 65.8896 68.5723 64.1668L70.1855 62.2287L77.6066 58.9985C78.0369 59.2139 78.8327 59.7738 78.5746 60.2906Z" fill="#292949"/>
<path d="M79.541 66.428C80.2939 66.2127 81.9287 66.0404 82.4449 67.074" stroke="#1F0247" stroke-width="0.1" stroke-linecap="round"/>
<path d="M76.9598 65.4593C76.6371 65.2439 75.7337 64.8778 74.7012 65.1362" stroke="#1F0247" stroke-width="0.1" stroke-linecap="round"/>
<path d="M70.5074 65.7817L70.0772 68.3659C69.2168 67.9352 69.2168 67.5045 69.2168 66.6431C69.2168 65.954 70.0772 65.7817 70.5074 65.7817Z" fill="#F4866E"/>
<ellipse cx="0.645393" cy="0.968936" rx="0.645393" ry="0.968936" transform="matrix(0.943021 0.332733 -0.332069 0.943255 69.8594 67.7197)" fill="white"/>
<path d="M78.5734 66.7505L78.8961 69.9807C78.8961 70.6267 78.3798 70.6267 77.6055 70.6267" stroke="#1F0247" stroke-width="0.1" stroke-linecap="round"/>
<ellipse cx="76.7669" cy="67.2027" rx="0.32157" ry="0.452226" fill="#1F0247"/>
<ellipse cx="78.8958" cy="64.297" rx="0.32157" ry="0.452226" fill="#206C68"/>
<ellipse cx="80.5091" cy="68.2043" rx="0.32157" ry="0.484528" fill="#1F0247"/>
<path d="M77.6066 72.2418C76.5741 72.2418 75.4556 70.9497 75.0254 70.3037C75.2835 72.1126 75.9934 72.7802 76.316 72.8879C76.6387 72.8879 77.3485 72.7587 77.6066 72.2418Z" fill="white"/>
<path d="M34.2127 122.956C31.3733 119.08 34.5353 110.789 36.4713 107.128L67.6043 112.942C73.0895 114.234 83.0273 117.594 84.0598 118.111C85.3504 118.757 85.5151 119.726 85.8377 120.372C86.0959 120.889 85.9958 128.12 85.9958 131.781H73.0895C72.9819 130.92 72.6088 128.447 72.6088 128.447C72.6088 128.447 64.0046 127.478 60.3479 127.478L59.9211 131.781H47.9223C47.9223 131.351 48.1514 130.256 48.4096 128.447C43.8924 128.447 37.7619 127.801 34.2127 122.956Z" fill="#C2C2FF"/>
<path d="M5.33242 113.266C5.59055 112.749 6.94571 112.405 7.59102 112.297L11.4629 112.62L22.4332 113.589L21.4653 114.558C21.2071 114.816 20.4973 114.881 20.1746 114.881H15.0121C13.9796 114.881 13.7215 115.742 13.7215 116.173V131.678H11.4629V114.881H7.91368C7.1393 114.881 6.94571 115.527 6.94571 115.85V131.678H5.00977V115.204C5.00977 113.912 5.00977 113.912 5.33242 113.266Z" fill="#9B6FEC"/>
<path d="M141.816 113.266C141.558 112.749 140.203 112.405 139.557 112.297L135.686 112.62L124.715 113.589L125.683 114.558C125.941 114.816 126.651 114.881 126.974 114.881H132.136C133.169 114.881 133.427 115.742 133.427 116.173V131.678H135.686V114.881H139.235C140.009 114.881 140.203 115.527 140.203 115.85V131.678H142.139V115.204C142.139 113.912 142.139 113.912 141.816 113.266Z" fill="#9B6FEC"/>
<rect x="0.740234" y="107.451" width="142.756" height="2.45488" fill="#4F1AA1"/>
<path d="M8.23438 108.42V113.589" stroke="#5E23DC" stroke-width="0.363524" stroke-miterlimit="10" stroke-linecap="round"/>
<path d="M90.1883 108.097L84.7031 98.0833C85.4775 96.5328 89.0052 96.3606 90.5109 96.4682L91.8016 100.021L95.3508 99.6984L95.0281 108.097H90.1883Z" fill="#F7A58D"/>
<path d="M65.3457 95.1759C63.0226 94.9175 59.0001 95.0682 57.2793 95.1759V108.42L73.7348 107.451L89.545 108.097L89.8676 107.128L90.1903 105.835L88.577 102.282L84.0598 101.959C82.7692 102.282 79.7362 102.993 77.9293 103.251C76.9613 102.928 66.6363 103.251 65.3457 103.251C65.0231 100.667 65.3457 97.76 65.3457 95.1759Z" fill="#F7A58D"/>
<path opacity="0.5" d="M91.4813 107.451L124.07 85.4857L91.7636 57.0601C91.7636 57.0601 50.9188 95.2697 47.2773 100.668C55.6664 109.066 69.218 106.805 91.4813 107.451Z" fill="url(#paint42_linear_2488_4013)"/>
<path d="M96.8786 86.6254C97.1199 85.761 97.9075 85.1631 98.805 85.1631H122.401C123.724 85.1631 124.683 86.4258 124.327 87.7007L118.905 107.128H91.1562L96.8786 86.6254Z" fill="#703AFF"/>
<path d="M98.2547 85.1631L92.1242 107.128H91.1562C92.9846 100.668 96.7059 87.4888 96.9641 86.4552C97.2867 85.1631 97.8245 85.1631 98.2547 85.1631Z" fill="#5E23DC"/>
<rect x="73.7324" y="107.128" width="45.1719" height="1.29207" fill="#5E23DC"/>
<ellipse cx="108.903" cy="97.1146" rx="2.2586" ry="2.26113" fill="#B8BBF4"/>
<path d="M83.4133 105.836C83.5208 106.051 83.8005 106.482 84.0586 106.482C83.0906 106.482 82.4453 106.805 82.4453 107.128" stroke="#D2624A" stroke-width="0.363524" stroke-miterlimit="10" stroke-linecap="round" stroke-linejoin="round"/>
<path d="M83.7363 104.544C84.2741 104.652 85.3496 105.061 85.3496 105.836C85.3496 106.611 85.3496 107.02 85.3496 107.128" stroke="#D2624A" stroke-width="0.363524" stroke-miterlimit="10" stroke-linecap="round"/>
<path d="M85.6719 103.897L86.6398 104.22L87.2852 106.482L86.9625 107.128" stroke="#D2624A" stroke-width="0.363524" stroke-miterlimit="10" stroke-linecap="round" stroke-linejoin="round"/>
<path d="M86.9629 103.252L88.2535 104.221L88.8988 106.483V107.129" stroke="#D2624A" stroke-width="0.363524" stroke-miterlimit="10" stroke-linecap="round" stroke-linejoin="round"/>
<path d="M84.3809 101.96L88.8981 102.283L89.866 105.836V107.128" stroke="#D2624A" stroke-width="0.363524" stroke-miterlimit="10" stroke-linecap="round" stroke-linejoin="round"/>
<path d="M37.9203 95.4996C36.6297 94.9827 30.7143 94.8535 27.918 94.8535C28.2406 97.8684 28.9505 104.286 29.2086 105.836C29.4667 107.387 32.5427 108.205 34.0484 108.42H68.25L67.9274 107.451L65.0235 103.575C62.012 103.683 55.4083 103.833 53.0852 103.575C52.1172 103.252 39.2109 101.314 37.9203 100.991C38.243 99.6988 37.9203 97.4377 37.9203 95.4996Z" fill="#F7A58D"/>
<path d="M60.8281 106.158L62.7641 106.481C62.9792 106.589 63.4739 106.933 63.732 107.45" stroke="#D2624A" stroke-width="0.363524" stroke-miterlimit="10" stroke-linecap="round"/>
<path d="M59.2148 106.805C59.9677 106.912 61.6025 107.322 62.1188 108.097" stroke="#D2624A" stroke-width="0.363524" stroke-miterlimit="10" stroke-linecap="round"/>
<path d="M51.1484 108.42C51.9013 108.097 53.5361 107.58 54.0523 108.097" stroke="#D2624A" stroke-width="0.363524" stroke-miterlimit="10" stroke-linecap="round"/>
<path d="M56.6328 103.898L64.0539 103.575C64.269 103.575 64.8928 103.769 65.6672 104.544C66.6352 105.513 67.9258 107.774 67.9258 108.097" stroke="#D2624A" stroke-width="0.363524" stroke-miterlimit="10" stroke-linecap="round"/>
<path d="M61.7949 105.19C62.3327 105.406 63.5373 105.836 64.0535 105.836C64.6988 105.836 65.6668 106.483 65.6668 106.806C65.6668 107.064 66.097 107.775 66.3121 108.098" stroke="#D2624A" stroke-width="0.363524" stroke-miterlimit="10" stroke-linecap="round"/>
<path d="M67.2812 95.8228C67.6039 96.4688 69.2817 97.6317 73.4117 97.1148C74.1861 97.1148 75.6703 96.4688 76.3156 96.1458" stroke="#1F7570" stroke-width="0.1" stroke-miterlimit="10" stroke-linecap="round"/>
<path d="M65.9902 88.3926L65.3449 95.176C64.8072 95.176 63.538 95.176 62.7637 95.176" stroke="#1F7570" stroke-width="0.1" stroke-miterlimit="10" stroke-linecap="round"/>
<path d="M85.027 86.1318C85.4572 87.3162 86.3176 89.8142 86.3176 90.3311C86.3176 90.9771 87.2856 91.6232 85.6723 94.2073C84.3816 96.2746 83.8439 97.0068 83.7363 97.1145" stroke="#1F7570" stroke-width="0.1" stroke-miterlimit="10" stroke-linecap="round"/>
<path d="M37.9184 81.9326V84.1937M39.8543 82.5787C39.209 83.0093 37.9184 83.9353 37.9184 84.1937M37.9184 84.1937V95.4994C37.1655 95.2841 35.079 94.8534 32.7559 94.8534" stroke="#5E23DC" stroke-width="0.363524" stroke-miterlimit="10" stroke-linecap="round"/>
<path d="M88.2539 114.558C91.9107 116.711 99.6114 121.406 101.16 122.956" stroke="#0E3F3C" stroke-width="0.363524" stroke-miterlimit="10" stroke-linecap="round"/>
<path d="M103.094 118.11C102.449 120.587 99.8676 126.767 94.7051 131.677" stroke="#0E3F3C" stroke-width="0.363524" stroke-miterlimit="10" stroke-linecap="round"/>
<path d="M70.1855 125.54C70.9384 125.648 72.5087 126.444 72.7668 128.77" stroke="#5E23DC" stroke-width="0.363524" stroke-linecap="round"/>
<path d="M48.8898 122.31L47.9219 131.677" stroke="#5E23DC" stroke-width="0.363524" stroke-linecap="round"/>
<path d="M53.4062 114.558C55.2346 115.204 59.0205 116.754 59.5367 117.788C60.182 119.08 60.8274 120.049 60.5047 124.894C60.2466 128.77 59.9669 131.032 59.8594 131.678" stroke="#5E23DC" stroke-width="0.363524" stroke-linecap="round"/>
<path opacity="0.5" d="M6.62203 79.6723C7.13828 79.1554 7.05224 77.9495 6.94469 77.4111H21.7869C19.98 78.1864 20.3887 78.8109 20.8189 79.0262C21.2491 79.1339 22.1741 79.5431 22.4322 80.3183C22.7549 81.2874 22.4322 82.9025 21.7869 84.1945C21.1416 85.4866 17.2697 86.7787 15.0111 88.0708C12.7525 89.3628 14.6884 90.9779 15.0111 91.3009C15.3338 91.624 19.2056 92.916 20.8189 93.8851C22.4322 94.8541 21.4642 96.7923 21.1416 97.1153C20.8189 97.4383 19.5283 98.4073 19.2056 99.0534C18.9475 99.5702 19.3132 100.776 19.5283 101.315H16.3017C16.4093 100.884 16.6244 99.6994 16.6244 98.4073C16.6244 96.7923 16.3017 96.7923 15.9791 96.1462C15.3338 94.5311 10.4939 93.8851 9.20328 93.5621C8.17077 93.3037 8.34286 91.947 8.55796 91.3009C8.66551 90.9779 9.20328 89.7504 10.4939 87.4247C11.7845 85.099 10.8166 83.6562 10.1713 83.2255C8.77307 82.2564 6.10578 80.1891 6.62203 79.6723Z" fill="url(#paint43_linear_2488_4013)"/>
<path fill-rule="evenodd" clip-rule="evenodd" d="M31.7152 42.1825H11.7542C10.7224 42.1825 9.88281 41.3419 9.88281 40.309V20.3256C9.88281 19.2927 10.7224 18.4521 11.7542 18.4521H31.7152C32.7469 18.4521 33.5865 19.2927 33.5865 20.3256V40.309C33.5865 41.3419 32.7469 42.1825 31.7152 42.1825ZM22.9804 38.4348H20.4853C20.141 38.4348 19.8615 38.155 19.8615 37.8103V22.8227C19.8615 22.478 20.141 22.1982 20.4853 22.1982H22.9804C23.3248 22.1982 23.6042 22.478 23.6042 22.8227V37.8103C23.6042 38.155 23.3248 38.4348 22.9804 38.4348ZM17.992 38.434H15.4968C15.1525 38.434 14.873 38.1542 14.873 37.8095V26.5688C14.873 26.2241 15.1525 25.9443 15.4968 25.9443H17.992C18.3363 25.9443 18.6157 26.2241 18.6157 26.5688V37.8095C18.6157 38.1542 18.3363 38.434 17.992 38.434ZM25.4775 38.4342H27.9726C28.317 38.4342 28.5964 38.1544 28.5964 37.8097V31.5649C28.5964 31.2202 28.317 30.9404 27.9726 30.9404H25.4775C25.1332 30.9404 24.8537 31.2202 24.8537 31.5649V37.8097C24.8537 38.1544 25.1332 38.4342 25.4775 38.4342ZM11.1309 20.3257C11.1309 19.9809 11.4103 19.7012 11.7546 19.7012H31.7157C32.06 19.7012 32.3394 19.9809 32.3394 20.3257V40.3091C32.3394 40.6538 32.06 40.9335 31.7157 40.9335H11.7546C11.4103 40.9335 11.1309 40.6538 11.1309 40.3091V20.3257Z" fill="#5E23DC"/>
<path d="M88.4162 2.26563V49.8447" stroke="#648EE2" stroke-opacity="0.16" stroke-linecap="square"/>
<path d="M101.918 2.26563V49.8447" stroke="#648EE2" stroke-opacity="0.16" stroke-linecap="square"/>
<path d="M114.297 2.26563V49.8447" stroke="#648EE2" stroke-opacity="0.16" stroke-linecap="square"/>
<path d="M127.799 2.26563V49.8447" stroke="#648EE2" stroke-opacity="0.16" stroke-linecap="square"/>
<path d="M141.301 2.26563V49.8447" stroke="#648EE2" stroke-opacity="0.16" stroke-linecap="square"/>
<path d="M82.791 45.3135H148.054" stroke="#648EE2" stroke-opacity="0.16" stroke-linecap="square"/>
<path d="M82.791 37.3838L148.054 37.3838" stroke="#648EE2" stroke-opacity="0.16" stroke-linecap="square"/>
<path d="M82.791 29.4536H148.054" stroke="#648EE2" stroke-opacity="0.16" stroke-linecap="square"/>
<path d="M82.791 22.6567H148.054" stroke="#648EE2" stroke-opacity="0.16" stroke-linecap="square"/>
<path d="M82.791 13.5942L148.054 13.5942" stroke="#648EE2" stroke-opacity="0.16" stroke-linecap="square"/>
<path d="M82.791 6.79687L148.054 6.79687" stroke="#648EE2" stroke-opacity="0.16" stroke-linecap="square"/>
<path d="M82.791 43.0475C87.3662 41.5667 86.3496 24.2479 90.6676 23.7893C94.9855 23.3308 105.436 33.3117 108.671 32.852C111.906 32.3923 117.407 9.27466 119.923 9.06235C122.439 8.85003 125.735 14.6066 128.925 19.2582C132.115 23.9099 136.171 28.139 137.592 29.0336C139.013 29.9282 140.334 27.4493 143.57 24.1826C146.806 20.9159 148.054 15.8595 148.054 15.8595" stroke="#5E23DC"/>
<ellipse cx="139.043" cy="29.4438" rx="2.24016" ry="2.25532" fill="white" stroke="#5E23DC"/>
<rect x="79.4219" y="1" width="29" height="22" stroke="#648EE2" stroke-opacity="0.16" stroke-linecap="square"/>
<defs>
<linearGradient id="paint0_linear_2488_4013" x1="30.0269" y1="-21.961" x2="114.452" y2="138.726" gradientUnits="userSpaceOnUse">
<stop offset="0.28" stop-color="#BFC4FF"/>
<stop offset="1" stop-color="#7272F7"/>
</linearGradient>
<linearGradient id="paint1_linear_2488_4013" x1="111.883" y1="9.10254" x2="37.0622" y2="56.8249" gradientUnits="userSpaceOnUse">
<stop offset="0.28" stop-color="#E7E8FF"/>
<stop offset="1" stop-color="#B4B5FF"/>
</linearGradient>
<linearGradient id="paint2_linear_2488_4013" x1="116.298" y1="16.0238" x2="41.4772" y2="63.7462" gradientUnits="userSpaceOnUse">
<stop offset="0.28" stop-color="#E7E8FF"/>
<stop offset="1" stop-color="#B4B5FF"/>
</linearGradient>
<linearGradient id="paint3_linear_2488_4013" x1="120.513" y1="22.6223" x2="45.692" y2="70.3447" gradientUnits="userSpaceOnUse">
<stop offset="0.28" stop-color="#E7E8FF"/>
<stop offset="1" stop-color="#B4B5FF"/>
</linearGradient>
<linearGradient id="paint4_linear_2488_4013" x1="102.065" y1="48.8906" x2="64.869" y2="67.7698" gradientUnits="userSpaceOnUse">
<stop offset="0.28" stop-color="#E7E8FF"/>
<stop offset="1" stop-color="#B4B5FF"/>
</linearGradient>
<linearGradient id="paint5_linear_2488_4013" x1="102.065" y1="58.241" x2="64.8693" y2="77.1133" gradientUnits="userSpaceOnUse">
<stop offset="0.28" stop-color="#E7E8FF"/>
<stop offset="1" stop-color="#B4B5FF"/>
</linearGradient>
<linearGradient id="paint6_linear_2488_4013" x1="90.9546" y1="-12.646" x2="12.5156" y2="140.433" gradientUnits="userSpaceOnUse">
<stop offset="0.28" stop-color="#BFC4FF"/>
<stop offset="1" stop-color="#7272F7"/>
</linearGradient>
<linearGradient id="paint7_linear_2488_4013" x1="-7.67598" y1="14.6175" x2="72.1822" y2="135.363" gradientUnits="userSpaceOnUse">
<stop offset="0.28" stop-color="#BFC4FF"/>
<stop offset="1" stop-color="#7272F7"/>
</linearGradient>
<linearGradient id="paint8_linear_2488_4013" x1="37.1865" y1="13.8961" x2="7.58906" y2="69.5662" gradientUnits="userSpaceOnUse">
<stop offset="0.28" stop-color="#BFC4FF"/>
<stop offset="1" stop-color="#7272F7"/>
</linearGradient>
<linearGradient id="paint9_linear_2488_4013" x1="53.3889" y1="62.7013" x2="-4.86496" y2="97.2754" gradientUnits="userSpaceOnUse">
<stop offset="0.28" stop-color="#BFC4FF"/>
<stop offset="1" stop-color="#7272F7"/>
</linearGradient>
<linearGradient id="paint10_linear_2488_4013" x1="41.2561" y1="74.0361" x2="11.8379" y2="111.278" gradientUnits="userSpaceOnUse">
<stop offset="0.28" stop-color="#BFC4FF"/>
<stop offset="1" stop-color="#7272F7"/>
</linearGradient>
<linearGradient id="paint11_linear_2488_4013" x1="72.8518" y1="59.7947" x2="18.5273" y2="68.4917" gradientUnits="userSpaceOnUse">
<stop offset="0.28" stop-color="#BFC4FF"/>
<stop offset="1" stop-color="#7272F7"/>
</linearGradient>
<linearGradient id="paint12_linear_2488_4013" x1="162.813" y1="92.101" x2="136.865" y2="124.409" gradientUnits="userSpaceOnUse">
<stop offset="0.28" stop-color="#BFC4FF"/>
<stop offset="1" stop-color="#7272F7"/>
</linearGradient>
<linearGradient id="paint13_linear_2488_4013" x1="-14.0464" y1="54.7944" x2="37.4572" y2="122.337" gradientUnits="userSpaceOnUse">
<stop offset="0.28" stop-color="#BFC4FF"/>
<stop offset="1" stop-color="#7272F7"/>
</linearGradient>
<linearGradient id="paint14_linear_2488_4013" x1="12.2365" y1="104.057" x2="30.7959" y2="105.515" gradientUnits="userSpaceOnUse">
<stop offset="0.28" stop-color="#9DA1FF" stop-opacity="0"/>
<stop offset="1" stop-color="#7272F7"/>
</linearGradient>
<linearGradient id="paint15_linear_2488_4013" x1="26.5263" y1="81.6079" x2="-12.5293" y2="131.716" gradientUnits="userSpaceOnUse">
<stop offset="0.28" stop-color="#BFC4FF"/>
<stop offset="1" stop-color="#7272F7"/>
</linearGradient>
<linearGradient id="paint16_linear_2488_4013" x1="18.2697" y1="94.2794" x2="19.1334" y2="79.7331" gradientUnits="userSpaceOnUse">
<stop offset="0.28" stop-color="#E7E8FF"/>
<stop offset="1" stop-color="#B4B5FF"/>
</linearGradient>
<linearGradient id="paint17_linear_2488_4013" x1="18.5178" y1="105.908" x2="19.3741" y2="91.3691" gradientUnits="userSpaceOnUse">
<stop offset="0.28" stop-color="#E7E8FF"/>
<stop offset="1" stop-color="#B4B5FF"/>
</linearGradient>
<linearGradient id="paint18_linear_2488_4013" x1="18.76" y1="117.542" x2="19.6237" y2="102.995" gradientUnits="userSpaceOnUse">
<stop offset="0.28" stop-color="#E7E8FF"/>
<stop offset="1" stop-color="#B4B5FF"/>
</linearGradient>
<linearGradient id="paint19_linear_2488_4013" x1="19.008" y1="129.17" x2="19.8643" y2="114.631" gradientUnits="userSpaceOnUse">
<stop offset="0.28" stop-color="#E7E8FF"/>
<stop offset="1" stop-color="#B4B5FF"/>
</linearGradient>
<linearGradient id="paint20_linear_2488_4013" x1="28.9647" y1="108.031" x2="29.5188" y2="92.7709" gradientUnits="userSpaceOnUse">
<stop offset="0.28" stop-color="#BFC4FF"/>
<stop offset="1" stop-color="#7272F7"/>
</linearGradient>
<linearGradient id="paint21_linear_2488_4013" x1="86.1745" y1="78.6367" x2="13.4882" y2="161.495" gradientUnits="userSpaceOnUse">
<stop offset="0.28" stop-color="#BFC4FF"/>
<stop offset="1" stop-color="#7272F7"/>
</linearGradient>
<linearGradient id="paint22_linear_2488_4013" x1="55.4348" y1="107.195" x2="55.5013" y2="98.5857" gradientUnits="userSpaceOnUse">
<stop offset="0.28" stop-color="#BFC4FF"/>
<stop offset="1" stop-color="#7272F7"/>
</linearGradient>
<linearGradient id="paint23_linear_2488_4013" x1="59.1663" y1="105.364" x2="41.5916" y2="135.861" gradientUnits="userSpaceOnUse">
<stop offset="0.28" stop-color="#BFC4FF"/>
<stop offset="1" stop-color="#7272F7"/>
</linearGradient>
<linearGradient id="paint24_linear_2488_4013" x1="62.6274" y1="107.364" x2="45.0528" y2="137.853" gradientUnits="userSpaceOnUse">
<stop offset="0.28" stop-color="#BFC4FF"/>
<stop offset="1" stop-color="#7272F7"/>
</linearGradient>
<linearGradient id="paint25_linear_2488_4013" x1="65.8258" y1="109.207" x2="48.2582" y2="139.704" gradientUnits="userSpaceOnUse">
<stop offset="0.28" stop-color="#BFC4FF"/>
<stop offset="1" stop-color="#7272F7"/>
</linearGradient>
<linearGradient id="paint26_linear_2488_4013" x1="69.143" y1="111.114" x2="51.5683" y2="141.61" gradientUnits="userSpaceOnUse">
<stop offset="0.28" stop-color="#BFC4FF"/>
<stop offset="1" stop-color="#7272F7"/>
</linearGradient>
<linearGradient id="paint27_linear_2488_4013" x1="33.4651" y1="113.822" x2="18.0531" y2="137.899" gradientUnits="userSpaceOnUse">
<stop offset="0.28" stop-color="#E7E8FF"/>
<stop offset="1" stop-color="#B4B5FF"/>
</linearGradient>
<linearGradient id="paint28_linear_2488_4013" x1="24.5977" y1="126.043" x2="27.6585" y2="126.043" gradientUnits="userSpaceOnUse">
<stop offset="0.28" stop-color="#BFC4FF"/>
<stop offset="1" stop-color="#7272F7"/>
</linearGradient>
<linearGradient id="paint29_linear_2488_4013" x1="24.5977" y1="122.242" x2="27.6861" y2="122.242" gradientUnits="userSpaceOnUse">
<stop offset="0.28" stop-color="#BFC4FF"/>
<stop offset="1" stop-color="#7272F7"/>
</linearGradient>
<linearGradient id="paint30_linear_2488_4013" x1="39.5714" y1="113.815" x2="24.1593" y2="137.899" gradientUnits="userSpaceOnUse">
<stop offset="0.28" stop-color="#E7E8FF"/>
<stop offset="1" stop-color="#B4B5FF"/>
</linearGradient>
<linearGradient id="paint31_linear_2488_4013" x1="30.7109" y1="126.043" x2="33.7718" y2="126.043" gradientUnits="userSpaceOnUse">
<stop offset="0.28" stop-color="#BFC4FF"/>
<stop offset="1" stop-color="#7272F7"/>
</linearGradient>
<linearGradient id="paint32_linear_2488_4013" x1="30.7109" y1="122.242" x2="33.7925" y2="122.242" gradientUnits="userSpaceOnUse">
<stop offset="0.28" stop-color="#BFC4FF"/>
<stop offset="1" stop-color="#7272F7"/>
</linearGradient>
<linearGradient id="paint33_linear_2488_4013" x1="127.893" y1="88.4086" x2="92.3403" y2="93.3207" gradientUnits="userSpaceOnUse">
<stop offset="0.28" stop-color="#BFC4FF"/>
<stop offset="1" stop-color="#7272F7"/>
</linearGradient>
<linearGradient id="paint34_linear_2488_4013" x1="123.492" y1="58.1452" x2="90.9284" y2="148.499" gradientUnits="userSpaceOnUse">
<stop offset="0.28" stop-color="#BFC4FF"/>
<stop offset="1" stop-color="#7272F7"/>
</linearGradient>
<linearGradient id="paint35_linear_2488_4013" x1="110.551" y1="42.7667" x2="95.2649" y2="67.3244" gradientUnits="userSpaceOnUse">
<stop offset="0.28" stop-color="#BFC4FF"/>
<stop offset="1" stop-color="#7272F7"/>
</linearGradient>
<linearGradient id="paint36_linear_2488_4013" x1="112.293" y1="133.449" x2="111.769" y2="122.05" gradientUnits="userSpaceOnUse">
<stop offset="0.28" stop-color="#E7E8FF"/>
<stop offset="1" stop-color="#B4B5FF"/>
</linearGradient>
<linearGradient id="paint37_linear_2488_4013" x1="147.12" y1="68.6359" x2="120.372" y2="139.181" gradientUnits="userSpaceOnUse">
<stop offset="0.28" stop-color="#BFC4FF"/>
<stop offset="1" stop-color="#7272F7"/>
</linearGradient>
<linearGradient id="paint38_linear_2488_4013" x1="134.621" y1="83.5855" x2="117.335" y2="117.817" gradientUnits="userSpaceOnUse">
<stop offset="0.28" stop-color="#BFC4FF"/>
<stop offset="1" stop-color="#7272F7"/>
</linearGradient>
<linearGradient id="paint39_linear_2488_4013" x1="135.333" y1="80.6299" x2="117.669" y2="97.3857" gradientUnits="userSpaceOnUse">
<stop offset="0.28" stop-color="#BFC4FF"/>
<stop offset="1" stop-color="#7272F7"/>
</linearGradient>
<linearGradient id="paint40_linear_2488_4013" x1="127.312" y1="81.5442" x2="112.962" y2="101.806" gradientUnits="userSpaceOnUse">
<stop offset="0.28" stop-color="#BFC4FF"/>
<stop offset="1" stop-color="#7272F7"/>
</linearGradient>
<linearGradient id="paint41_linear_2488_4013" x1="-146.315" y1="45.4442" x2="-138.937" y2="160.246" gradientUnits="userSpaceOnUse">
<stop offset="0.28" stop-color="#BFC4FF"/>
<stop offset="1" stop-color="#7272F7"/>
</linearGradient>
<linearGradient id="paint42_linear_2488_4013" x1="76.9618" y1="78.0563" x2="115.406" y2="121.298" gradientUnits="userSpaceOnUse">
<stop stop-color="#D9D9D9" stop-opacity="0"/>
<stop offset="0.836056" stop-color="#D9D9D9"/>
</linearGradient>
<linearGradient id="paint43_linear_2488_4013" x1="15.0111" y1="79.6723" x2="15.3345" y2="134.585" gradientUnits="userSpaceOnUse">
<stop stop-color="#D9D9D9" stop-opacity="0"/>
<stop offset="0.836056" stop-color="#D9D9D9"/>
</linearGradient>
</defs>
</svg>
